<svg width="177" height="124" viewBox="0 0 177 124" fill="none" xmlns="http://www.w3.org/2000/svg">
<g clip-path="url(#clip0_3_31)">
<path d="M82.3947 37.9571C82.3393 37.8926 82.2691 37.8426 82.1901 37.8111C82.1111 37.7797 82.0257 37.7678 81.9412 37.7766C81.8566 37.7853 81.7754 37.8144 81.7046 37.8614C81.6337 37.9083 81.5752 37.9717 81.5342 38.0461C77.1052 46.0584 67.075 48.4769 59.0627 43.9069C49.7225 38.5728 51.1247 27.5782 51.2359 18.1267C51.2656 15.6835 50.9887 13.7719 50.405 12.392C47.0221 4.43913 35.7901 4.55784 32.6223 12.622C31.0347 16.6652 31.9175 24.9668 31.9546 29.47C31.9843 33.2017 25.2851 34.1438 25.2629 28.2459C25.2406 22.7857 24.6397 15.8195 26.1754 11.1902C29.7141 0.51461 42.7563 -3.4841 51.6514 3.44502C59.5672 9.61001 57.987 19.9147 57.8832 28.6169C57.8535 30.8128 58.128 32.5661 58.7066 33.8768C62.1341 41.6294 72.8839 41.6813 76.4004 33.8916C77.3722 31.7476 77.4613 28.372 77.4464 25.9164C77.2832 5.12908 100.318 -5.68005 115.186 9.55066C115.223 9.59036 115.269 9.62024 115.32 9.63772C115.371 9.6552 115.426 9.65976 115.48 9.651C115.534 9.64223 115.586 9.62042 115.63 9.58743C115.674 9.55444 115.71 9.51127 115.735 9.46163C121.944 -3.14284 140.654 -3.37282 145.699 10.4187C146.386 12.2981 146.733 15.2779 146.738 19.3583C146.745 23.9653 146.07 30.4122 147.739 34.1661C151.041 41.5997 161.916 41.4884 165.21 34.0177C166.976 30.019 166.019 21.4503 166.049 16.9027C166.078 12.9039 172.726 12.0063 172.711 18.0377C172.696 23.6018 173.349 30.6793 171.739 35.405C167.228 48.6178 148.08 50.2129 141.819 37.2226C139.237 31.8663 139.898 22.6819 140.038 16.784C140.291 6.53123 127.486 2.54735 122.248 11.1754C119.192 16.1904 121.692 23.0676 120.371 28.5278C116.046 46.3848 94.5986 52.1418 82.3947 37.9571ZM114.644 24.1804C114.644 20.0702 113.011 16.1283 110.105 13.2219C107.198 10.3155 103.257 8.68266 99.1463 8.68266C95.036 8.68266 91.0941 10.3155 88.1877 13.2219C85.2813 16.1283 83.6485 20.0702 83.6485 24.1804C83.6485 26.2156 84.0494 28.2309 84.8282 30.1112C85.607 31.9915 86.7486 33.6999 88.1877 35.139C91.0941 38.0454 95.036 39.6782 99.1463 39.6782C101.181 39.6782 103.197 39.2774 105.077 38.4985C106.957 37.7197 108.666 36.5781 110.105 35.139C111.544 33.6999 112.686 31.9915 113.464 30.1112C114.243 28.2309 114.644 26.2156 114.644 24.1804Z" fill="#262261"/>
<path d="M20.2181 18.8093C22.0578 18.8093 23.5491 17.3179 23.5491 15.4782C23.5491 13.6386 22.0578 12.1472 20.2181 12.1472C18.3784 12.1472 16.8871 13.6386 16.8871 15.4782C16.8871 17.3179 18.3784 18.8093 20.2181 18.8093Z" fill="#C49A6C"/>
<path d="M130.194 18.7944C132.038 18.7944 133.532 17.2997 133.532 15.456C133.532 13.6122 132.038 12.1175 130.194 12.1175C128.35 12.1175 126.855 13.6122 126.855 15.456C126.855 17.2997 128.35 18.7944 130.194 18.7944Z" fill="#C49A6C"/>
<path d="M156.412 18.8241C158.264 18.8241 159.765 17.3228 159.765 15.4708C159.765 13.6188 158.264 12.1175 156.412 12.1175C154.56 12.1175 153.058 13.6188 153.058 15.4708C153.058 17.3228 154.56 18.8241 156.412 18.8241Z" fill="#C49A6C"/>
<path d="M20.2107 26.2948C22.0463 26.2948 23.5343 24.8068 23.5343 22.9712C23.5343 21.1356 22.0463 19.6476 20.2107 19.6476C18.3751 19.6476 16.8871 21.1356 16.8871 22.9712C16.8871 24.8068 18.3751 26.2948 20.2107 26.2948Z" fill="#C49A6C"/>
<path d="M130.201 26.3171C132.049 26.3171 133.547 24.8191 133.547 22.9712C133.547 21.1233 132.049 19.6253 130.201 19.6253C128.353 19.6253 126.855 21.1233 126.855 22.9712C126.855 24.8191 128.353 26.3171 130.201 26.3171Z" fill="#C49A6C"/>
<path d="M156.404 26.3022C158.252 26.3022 159.75 24.8042 159.75 22.9564C159.75 21.1085 158.252 19.6105 156.404 19.6105C154.556 19.6105 153.058 21.1085 153.058 22.9564C153.058 24.8042 154.556 26.3022 156.404 26.3022Z" fill="#C49A6C"/>
<path d="M156.404 34.3442C158.252 34.3442 159.75 32.8462 159.75 30.9983C159.75 29.1504 158.252 27.6524 156.404 27.6524C154.556 27.6524 153.058 29.1504 153.058 30.9983C153.058 32.8462 154.556 34.3442 156.404 34.3442Z" fill="#C49A6C"/>
<path d="M177.34 57.5797C177.34 59.8129 176.453 61.9546 174.874 63.5338C173.295 65.1129 171.153 66 168.92 66H20.5742C18.341 66 16.1993 65.1129 14.6201 63.5338C13.041 61.9546 12.1539 59.8129 12.1539 57.5797V57.372C12.1539 55.1388 13.041 52.997 14.6201 51.4179C16.1993 49.8388 18.341 48.9517 20.5742 48.9517H168.92C171.153 48.9517 173.295 49.8388 174.874 51.4179C176.453 52.997 177.34 55.1388 177.34 57.372V57.5797ZM122.768 55.4431L125.527 63.396C125.567 63.513 125.642 63.6144 125.742 63.6861C125.842 63.7579 125.962 63.7964 126.086 63.7964C126.21 63.7964 126.331 63.7579 126.433 63.6861C126.535 63.6144 126.613 63.513 126.655 63.396L129.474 55.4134C129.632 54.9634 129.798 54.9609 129.971 55.406C130.916 57.9135 131.818 60.431 132.679 62.9583C132.902 63.6112 133.421 63.9673 134.081 63.767C134.358 63.6829 134.45 63.5048 134.356 63.2328L130.817 53.2101C130.737 52.9808 130.588 52.782 130.39 52.6416C130.192 52.5013 129.955 52.4262 129.713 52.4271C129.47 52.4279 129.234 52.5045 129.036 52.6462C128.839 52.7879 128.692 52.9876 128.614 53.2175L126.366 59.6792C126.345 59.7343 126.308 59.7817 126.26 59.8152C126.211 59.8487 126.154 59.8666 126.095 59.8666C126.036 59.8666 125.979 59.8487 125.93 59.8152C125.882 59.7817 125.845 59.7343 125.824 59.6792L123.621 53.3733C123.537 53.1364 123.383 52.9312 123.178 52.7857C122.973 52.6403 122.728 52.5618 122.477 52.561C122.226 52.5601 121.981 52.6371 121.775 52.7812C121.569 52.9253 121.413 53.1295 121.328 53.3658L117.879 63.1141C117.845 63.2088 117.835 63.3104 117.851 63.4098C117.866 63.5091 117.907 63.6029 117.968 63.6827C118.029 63.7624 118.11 63.8255 118.202 63.8661C118.293 63.9068 118.394 63.9237 118.494 63.9153C118.91 63.8856 119.214 63.6853 119.37 63.2699C120.369 60.6634 121.299 58.057 122.159 55.4505C122.179 55.3856 122.219 55.3286 122.273 55.2879C122.327 55.2472 122.393 55.2247 122.461 55.2239C122.529 55.2231 122.595 55.2439 122.65 55.2833C122.705 55.3227 122.746 55.3787 122.768 55.4431ZM23.3859 54.7086C24.1426 54.679 24.8894 54.6716 25.6264 54.6864C26.1704 54.6963 26.3262 54.3377 26.0937 53.6107C26.0587 53.4965 25.9879 53.3966 25.8917 53.3258C25.7955 53.255 25.679 53.217 25.5596 53.2175L18.9198 53.2101C18.5736 53.2101 18.3955 53.3832 18.3857 53.7294C18.3807 54.0311 18.4846 54.2734 18.6972 54.4564C18.8852 54.6196 19.2091 54.6913 19.6691 54.6716C20.1192 54.6567 20.6039 54.6691 21.1232 54.7086C21.3903 54.7284 21.5238 54.8719 21.5238 55.1389C21.5683 57.3646 21.7093 59.8276 21.457 62.031C21.3779 62.7728 21.6647 63.1289 22.3176 63.0993C22.5033 63.0935 22.6796 63.0154 22.8096 62.8812C22.9396 62.7471 23.0132 62.5674 23.015 62.3796L23.0372 55.0647C23.0372 54.8323 23.1534 54.7136 23.3859 54.7086ZM58.2615 59.2563L58.2763 62.4316C58.2763 62.7976 58.4568 62.9929 58.8179 63.0177L59.174 63.0473C59.4361 63.0671 59.5672 62.9459 59.5672 62.6838V53.6032C59.5672 53.2274 59.3867 53.0963 59.0256 53.2101L58.7066 53.3139C58.4148 53.4029 58.2689 53.5983 58.2689 53.9V56.9194C58.2689 57.2904 58.0834 57.4758 57.7125 57.4758H53.6322C53.508 57.4765 53.388 57.4307 53.2949 57.3472C53.2018 57.2637 53.1423 57.1484 53.1277 57.0233C53.0189 56.0539 53.0041 55.0821 53.0832 54.1077C53.1079 53.811 53.0634 53.5909 52.9497 53.4475C52.7914 53.2546 52.554 53.1754 52.2375 53.2101C51.9308 53.2447 51.7775 53.4153 51.7775 53.722V62.5725C51.7775 62.8841 51.9333 63.0399 52.2449 63.0399H52.5787C52.8705 63.0399 53.0263 62.8965 53.0461 62.6096L53.2835 59.3009C53.3082 58.9497 53.4962 58.7741 53.8473 58.7741H57.7793C57.9059 58.7741 58.0274 58.8247 58.1177 58.9149C58.2079 59.0052 58.2595 59.1278 58.2615 59.2563ZM87.0611 58.7741H91.4753C91.6542 58.7737 91.8273 58.7111 91.9642 58.5972C92.1011 58.4834 92.1933 58.3254 92.2246 58.151C92.2641 57.9185 92.2122 57.738 92.0688 57.6094C91.9698 57.5154 91.8017 57.4709 91.5643 57.4758C90.13 57.4857 88.6784 57.4833 87.2095 57.4684C86.9622 57.4684 86.799 57.3497 86.7198 57.1123C85.6812 53.9297 89.9989 54.679 91.5717 54.7012C91.7665 54.714 91.9584 54.6489 92.1052 54.5202C92.252 54.3915 92.3416 54.2098 92.3544 54.015C92.3672 53.8202 92.3021 53.6283 92.1734 53.4815C92.0447 53.3347 91.8629 53.2451 91.6682 53.2323C89.7986 53.0097 88.0256 53.173 86.3489 53.722C86.193 53.7726 86.0517 53.8597 85.9368 53.9759C85.8219 54.0921 85.7368 54.234 85.6886 54.3896C85.0506 56.4718 84.9443 58.5738 85.3696 60.6956C85.978 63.6853 89.2348 63.1141 91.8759 62.9954C92.2765 62.9806 92.3828 62.7951 92.1949 62.439L92.0539 62.1793C91.9154 61.9221 91.7028 61.7861 91.4159 61.7713C89.5464 61.6674 85.978 62.4538 86.6902 59.0783C86.7347 58.8755 86.8583 58.7741 87.0611 58.7741ZM166.36 61.7416C164.498 61.7565 160.833 62.4167 161.738 59.0709C161.793 58.873 161.921 58.7741 162.124 58.7741H166.479C166.81 58.7741 166.998 58.6109 167.043 58.2845L167.072 58.0174C167.122 57.6564 166.966 57.4758 166.605 57.4758H162.132C161.894 57.4758 161.738 57.3646 161.664 57.142C160.581 53.8777 164.899 54.7903 166.464 54.5825C166.687 54.5578 166.855 54.449 166.969 54.2561L167.161 53.9371C167.203 53.8684 167.226 53.7902 167.227 53.71C167.229 53.6298 167.21 53.5506 167.172 53.4801C167.134 53.4096 167.078 53.3503 167.009 53.3082C166.941 53.266 166.863 53.2424 166.783 53.2397C164.342 53.1433 160.41 52.483 160.128 56.1776C159.661 62.4464 160.611 63.2773 166.79 62.9954C167.176 62.9806 167.288 62.8 167.124 62.4538L166.969 62.1274C166.845 61.8702 166.642 61.7416 166.36 61.7416Z" fill="#C49A6C"/>
<path d="M67.235 80.2132L67.7058 80.684C67.7773 80.7566 67.8291 80.8462 67.8563 80.9443C67.8834 81.0424 67.885 81.1455 67.8609 81.2438C67.8368 81.342 67.7878 81.4319 67.7186 81.5048C67.6494 81.5778 67.5625 81.6312 67.4662 81.6599C66.6329 81.911 65.9966 81.7227 65.5572 81.0949C65.4088 80.8838 65.4145 80.6783 65.5743 80.4786L67.2265 78.347C67.3088 78.242 67.4133 78.1563 67.5323 78.0963C67.6514 78.0364 67.7821 78.0036 67.9149 78.0003C68.0477 77.997 68.1792 78.0233 68.3 78.0774C68.4209 78.1314 68.5278 78.2118 68.6133 78.3128L70.3939 80.3844C70.5344 80.547 70.6184 80.7507 70.6333 80.9651C70.6482 81.1795 70.5931 81.3929 70.4764 81.5733C70.3596 81.7537 70.1875 81.8914 69.9859 81.9657C69.7842 82.04 69.5639 82.0468 69.358 81.9852C68.7588 81.8083 68.4877 81.3574 68.5448 80.6327C68.5676 80.3245 68.462 80.0677 68.2281 79.8622C68.0112 79.6739 67.7515 79.594 67.449 79.6225C67.3828 79.6298 67.3198 79.6555 67.2672 79.6965C67.2146 79.7376 67.1748 79.7923 67.1523 79.8544C67.1298 79.9164 67.1257 79.9831 67.1403 80.0466C67.155 80.1102 67.1878 80.168 67.235 80.2132Z" fill="white"/>
<path d="M170.132 80.1447L170.911 80.47C171.373 80.6583 171.456 80.9551 171.159 81.3603C170.612 82.0965 169.95 82.2506 169.173 81.8226C168.945 81.6913 168.84 81.4973 168.857 81.2405C168.868 81.0578 168.777 80.8324 168.583 80.5642C168.55 80.5217 168.506 80.4896 168.456 80.4719C168.406 80.4541 168.351 80.4514 168.299 80.4641C168.248 80.4769 168.201 80.5044 168.164 80.5435C168.128 80.5826 168.104 80.6314 168.095 80.684L167.992 81.4459C167.972 81.5898 167.918 81.7268 167.833 81.845C167.749 81.9633 167.637 82.0594 167.508 82.125C167.378 82.1907 167.235 82.2239 167.089 82.2219C166.944 82.2199 166.801 82.1828 166.674 82.1136C166.023 81.7541 165.838 81.289 166.117 80.7183C166.243 80.4672 166.445 80.333 166.725 80.3159L167.324 80.2646C167.684 80.236 167.775 80.0648 167.598 79.7509C167.37 79.3343 167.376 78.9776 167.615 78.6809C167.764 78.4982 167.986 78.3955 168.283 78.3727C169.168 78.3156 169.667 78.7551 169.781 79.691C169.81 79.9136 169.927 80.0648 170.132 80.1447Z" fill="white"/>
<path d="M126.705 80.7183C127.305 80.7183 127.792 80.2315 127.792 79.6311C127.792 79.0307 127.305 78.5439 126.705 78.5439C126.104 78.5439 125.618 79.0307 125.618 79.6311C125.618 80.2315 126.104 80.7183 126.705 80.7183Z" fill="white"/>
<path d="M129.393 80.684C129.97 80.684 130.437 80.2165 130.437 79.6397C130.437 79.0629 129.97 78.5953 129.393 78.5953C128.816 78.5953 128.348 79.0629 128.348 79.6397C128.348 80.2165 128.816 80.684 129.393 80.684Z" fill="white"/>
<path d="M33.7981 79.3983L33.0106 79.386C32.5568 79.3788 32.1831 79.7409 32.176 80.1948L32.0128 90.5859C32.0056 91.0397 32.3677 91.4134 32.8216 91.4205L33.609 91.4329C34.0628 91.44 34.4365 91.0779 34.4436 90.6241L34.6069 80.2329C34.614 79.7791 34.2519 79.4055 33.7981 79.3983Z" fill="white"/>
<path d="M87.0782 90.4259C91.29 91.6329 90.862 87.0702 90.7849 84.1254C90.7792 83.8001 90.9191 83.5632 91.2044 83.4148L92.1461 82.944C92.5741 82.7214 92.8138 82.8499 92.8651 83.3292C93.1162 85.5664 93.005 87.7693 92.5313 89.9379C92.4742 90.2062 92.5769 90.3774 92.8395 90.4516C98.9431 92.2921 93.7212 83.1752 97.9758 82.9954C98.3296 82.9783 98.5065 83.1466 98.5065 83.5005V88.6111C98.5065 89.3376 98.217 90.0344 97.7017 90.5481C97.1863 91.0618 96.4874 91.3504 95.7586 91.3504L43.2913 91.4189C43.1824 91.4189 43.0778 91.3756 43.0008 91.2986C42.9237 91.2215 42.8804 91.117 42.8804 91.008C42.8462 88.0518 42.8462 85.0442 42.8804 81.9852C42.8975 80.4529 43.3855 79.4 44.9777 79.2716C45.2802 79.243 45.4315 79.3829 45.4315 79.691V90.1434C45.4315 90.2569 45.4766 90.3658 45.5568 90.4461C45.6371 90.5263 45.746 90.5714 45.8595 90.5714H59.445C59.8136 90.5714 60.1672 90.4256 60.4286 90.1658C60.6901 89.9059 60.8381 89.5532 60.8403 89.1846L60.8489 84.4164C60.8442 84.2409 60.8723 84.0558 60.9316 83.8719C60.9909 83.688 61.0802 83.5088 61.1945 83.3445C61.3088 83.1802 61.4458 83.0341 61.5977 82.9145C61.7496 82.7948 61.9135 82.704 62.0798 82.6473C62.2462 82.5905 62.4119 82.5689 62.5674 82.5836C62.7229 82.5983 62.8653 82.6491 62.9863 82.7331C63.1073 82.8171 63.2045 82.9327 63.2726 83.0731C63.3406 83.2136 63.3781 83.3763 63.3828 83.5518C63.5027 85.8746 63.4171 88.0118 63.126 89.9636C63.0861 90.2376 63.2002 90.4145 63.4684 90.4944C67.6716 91.6928 66.8156 86.8134 66.8327 84.6732C66.8384 84.3879 66.9183 84.1254 67.0724 83.8857C67.3806 83.4006 67.7943 83.0667 68.3137 82.8841C69.027 82.6387 69.3609 82.8898 69.3152 83.6374L68.9214 90.1348C68.91 90.3232 68.9956 90.4402 69.1782 90.4858C73.3044 91.5045 72.6281 86.8818 72.611 84.0997C72.6053 83.7858 72.7423 83.5575 73.0219 83.4148L74.0406 82.8927C74.5942 82.6073 74.8567 82.7757 74.8282 83.3977L74.5457 90.1434C74.5343 90.4287 74.6684 90.5714 74.948 90.5714H78.2267C78.5577 90.5714 78.7346 90.4059 78.7574 90.0749C78.8944 87.6266 77.9356 83.3207 80.4182 82.8755C80.4838 82.8629 80.5513 82.865 80.6161 82.8815C80.6808 82.898 80.7411 82.9287 80.7926 82.9712C80.8441 83.0137 80.8856 83.0671 80.9141 83.1275C80.9426 83.1879 80.9574 83.2539 80.9575 83.3207L80.9489 89.7154C80.9489 90.0293 81.0945 90.2518 81.3855 90.3831C82.4927 90.8682 83.5057 90.6827 84.4245 89.8267C84.6528 89.6098 84.7726 89.3416 84.784 89.022C84.8696 87.1729 83.9622 83.1238 86.6845 82.9012C87.0212 82.8727 87.2152 83.0239 87.2666 83.3549C87.6261 85.6491 87.4949 87.8834 86.8728 90.0578C86.8214 90.2461 86.8899 90.3688 87.0782 90.4259Z" fill="white"/>
<path d="M105.261 90.5543L107.272 90.58C107.563 90.58 107.709 90.4373 107.709 90.1519V80.3673C107.709 80.1048 107.826 79.9107 108.06 79.7852L109.173 79.2116C109.248 79.1731 109.331 79.1542 109.415 79.1569C109.5 79.1595 109.581 79.1835 109.653 79.2266C109.724 79.2697 109.783 79.3304 109.824 79.4028C109.864 79.4752 109.885 79.5568 109.883 79.6397L109.781 90.1605C109.775 90.4287 109.909 90.5628 110.183 90.5628H113.582C113.652 90.563 113.721 90.5488 113.785 90.5212C113.849 90.4936 113.907 90.4531 113.955 90.4024C114.002 90.3516 114.038 90.2918 114.061 90.2265C114.084 90.1613 114.093 90.0922 114.087 90.0235C113.813 86.2398 113.77 83.2836 113.958 81.1549C114.067 79.945 114.737 79.3372 115.97 79.3315C116.312 79.3315 116.484 79.5027 116.484 79.8451V90.7597C116.484 91.0793 116.324 91.2448 116.004 91.2562C108.716 91.4274 103.6 91.4845 100.655 91.4274C100.398 91.4217 100.259 91.2762 100.236 90.9909C100.232 90.937 100.24 90.8831 100.258 90.8323C100.276 90.7815 100.305 90.735 100.342 90.6957C100.378 90.6563 100.423 90.625 100.473 90.6036C100.522 90.5823 100.576 90.5713 100.63 90.5714H102.119C102.507 90.5714 102.687 90.3802 102.658 89.9978C102.53 88.0546 101.665 82.6187 104.259 82.0623C104.562 81.9995 104.713 82.1222 104.713 82.4304V89.9978C104.713 90.0709 104.727 90.1433 104.755 90.2108C104.782 90.2783 104.822 90.3396 104.873 90.3913C104.924 90.443 104.985 90.484 105.051 90.5119C105.118 90.5399 105.189 90.5543 105.261 90.5543Z" fill="white"/>
<path d="M76.8475 82.018C77.5226 82.0546 78.0933 81.6518 78.1222 81.1183C78.1511 80.5848 77.6272 80.1228 76.9521 80.0862C76.277 80.0496 75.7063 80.4524 75.6775 80.9859C75.6486 81.5194 76.1724 81.9815 76.8475 82.018Z" fill="white"/>
<path d="M79.7248 82.165C80.3063 82.165 80.7777 81.6935 80.7777 81.112C80.7777 80.5305 80.3063 80.0591 79.7248 80.0591C79.1433 80.0591 78.6718 80.5305 78.6718 81.112C78.6718 81.6935 79.1433 82.165 79.7248 82.165Z" fill="white"/>
<path d="M19.2902 82.8137C19.8785 83.049 20.519 82.8305 20.7209 82.3257C20.9228 81.8208 20.6097 81.2209 20.0214 80.9856C19.4332 80.7503 18.7927 80.9688 18.5908 81.4737C18.3889 81.9785 18.702 82.5784 19.2902 82.8137Z" fill="white"/>
<path d="M22.992 82.7517C23.497 82.4098 23.6507 81.7549 23.3353 81.2891C23.0199 80.8232 22.3548 80.7227 21.8497 81.0646C21.3447 81.4066 21.191 82.0614 21.5064 82.5273C21.8218 82.9932 22.487 83.0936 22.992 82.7517Z" fill="white"/>
<path d="M168.951 89.9636C168.822 87.832 167.701 83.4234 170.663 82.8413C171.068 82.7614 171.271 82.9297 171.271 83.3463V90.7426C171.271 91.1478 171.071 91.3504 170.671 91.3504L152.489 91.4103C152.311 91.4105 152.135 91.3741 151.971 91.3034C151.808 91.2327 151.661 91.1293 151.539 90.9994C150.728 90.1205 149.927 90.1519 149.133 91.0936C149.05 91.1905 148.947 91.2688 148.83 91.3233C148.714 91.3779 148.586 91.4076 148.457 91.4103C141.666 91.4674 134.886 91.4388 128.117 91.3247C120.481 91.1877 122.151 80.5385 129.53 82.0879C133.048 82.8327 133.476 86.8818 133.074 89.7239C133.059 89.8292 133.067 89.9365 133.097 90.0385C133.128 90.1404 133.179 90.2347 133.249 90.315C133.319 90.3953 133.405 90.4598 133.502 90.504C133.599 90.5482 133.704 90.5712 133.81 90.5714H147.139C147.365 90.5717 147.59 90.5257 147.798 90.4361C148.006 90.3465 148.194 90.2152 148.35 90.0502C148.507 89.8853 148.628 89.69 148.706 89.4764C148.785 89.2628 148.82 89.0354 148.808 88.8079C148.277 78.6466 160.561 80.1447 158.507 89.8009C158.491 89.8789 158.491 89.9595 158.509 90.0371C158.526 90.1147 158.56 90.1874 158.608 90.2502C158.656 90.3129 158.717 90.3642 158.787 90.4005C158.857 90.4367 158.934 90.4571 159.012 90.4601L162.119 90.6056C162.565 90.6227 162.759 90.4087 162.702 89.9636C162.411 87.8235 161.751 82.6016 164.328 82.9782C164.585 83.0125 164.71 83.1608 164.705 83.4234L164.602 89.9122C164.601 89.9932 164.616 90.0735 164.646 90.1487C164.676 90.224 164.72 90.2925 164.776 90.3506C164.833 90.4086 164.9 90.4549 164.975 90.487C165.049 90.519 165.129 90.536 165.21 90.5371L168.369 90.5799C168.448 90.5814 168.528 90.5661 168.601 90.5352C168.675 90.5042 168.741 90.4583 168.796 90.4003C168.851 90.3423 168.893 90.2735 168.919 90.1983C168.946 90.1231 168.957 90.0431 168.951 89.9636ZM127.33 83.1152C123.597 84.6903 125.061 92.0181 130.566 90.4258C130.817 90.3517 130.956 90.1833 130.985 89.9208C131.182 88.1573 131.002 81.5572 127.33 83.1152ZM156.572 89.955C156.795 78.912 148.988 83.3549 151.308 88.5169C152.206 90.5115 154.167 90.9566 156.17 90.4686C156.432 90.4002 156.567 90.229 156.572 89.955Z" fill="white"/>
<path d="M27.1891 90.0663C27.249 87.892 26.3587 83.3206 28.8669 82.8841C28.9302 82.8742 28.9949 82.8778 29.0566 82.8947C29.1183 82.9117 29.1755 82.9415 29.2242 82.9821C29.273 83.0227 29.3122 83.0733 29.3392 83.1302C29.3662 83.1872 29.3803 83.2492 29.3805 83.3121V90.7768C29.3805 91.1078 29.215 91.279 28.884 91.2905C22.3724 91.5244 18.2605 91.5615 16.5484 91.4018C12.9273 91.0508 10.1109 84.7417 14.0487 83.5004C14.1229 83.4774 14.2017 83.4732 14.278 83.488C14.3543 83.5029 14.4257 83.5364 14.4859 83.5855C14.546 83.6347 14.5931 83.698 14.6229 83.7698C14.6527 83.8416 14.6642 83.9196 14.6565 83.9969C13.7662 93.0026 20.7601 90.5799 26.6754 90.5714C27.0064 90.5657 27.1776 90.3973 27.1891 90.0663Z" fill="white"/>
<path d="M35.8608 94.4322C38.8399 93.3022 37.5815 86.6592 38.1465 83.6631C38.2031 83.4041 38.3524 83.1748 38.5662 83.0182C38.7801 82.8616 39.0438 82.7885 39.3078 82.8127C39.5717 82.8369 39.8177 82.9567 39.9996 83.1495C40.1814 83.3424 40.2865 83.595 40.2952 83.86C40.3037 87.618 41.6991 94.7403 36.1348 95.4937C36.0005 95.5095 35.8643 95.4758 35.752 95.399C35.6397 95.3223 35.5591 95.2077 35.5254 95.077C35.4917 94.9464 35.5072 94.8086 35.569 94.6898C35.6308 94.571 35.7346 94.4793 35.8608 94.4322Z" fill="white"/>
<path d="M136.457 92.4408L135.601 92.4348C135.251 92.4323 134.966 92.714 134.963 93.0638L134.866 107.034C134.863 107.384 135.145 107.67 135.495 107.672L136.351 107.678C136.7 107.681 136.986 107.399 136.988 107.049L137.086 93.0786C137.088 92.7288 136.807 92.4432 136.457 92.4408Z" fill="white"/>
<path d="M25.2544 92.5917C25.5568 92.3748 25.9249 92.3634 26.3587 92.5574C26.5755 92.6487 26.6811 92.8114 26.6754 93.0454L26.5641 98.6867C26.5625 98.7852 26.588 98.8825 26.6378 98.9675C26.6875 99.0526 26.7596 99.1222 26.8458 99.1684C26.932 99.2146 27.0291 99.2357 27.126 99.2293C27.2229 99.2228 27.3159 99.1891 27.3945 99.1319C29.3006 97.8079 31.0498 97.902 32.6421 99.4144C32.758 99.5225 32.8506 99.6535 32.9139 99.7992C32.9772 99.945 33.01 100.102 33.0102 100.262L33.0187 107.05C33.0187 107.478 32.8047 107.692 32.3767 107.692H31.4179C31.0584 107.692 30.8786 107.515 30.8786 107.162V100.202C30.8778 100.021 30.8343 99.8419 30.7516 99.6805C30.6689 99.519 30.5494 99.3793 30.4027 99.2726C30.256 99.166 30.0863 99.0953 29.9072 99.0664C29.7281 99.0375 29.5448 99.0511 29.372 99.1062L27.1377 99.8338C26.9811 99.8831 26.8443 99.9811 26.7473 100.114C26.6503 100.246 26.5981 100.406 26.5984 100.57V107.17C26.5984 107.535 26.4157 107.712 26.0505 107.701L25.2972 107.675C24.9319 107.658 24.7436 107.467 24.7322 107.102C24.5952 102.645 24.618 98.1931 24.8007 93.7473C24.8292 93.1709 24.9804 92.7857 25.2544 92.5917Z" fill="white"/>
<path d="M148.14 95.5622C148.755 95.5622 149.253 95.0639 149.253 94.4493C149.253 93.8347 148.755 93.3365 148.14 93.3365C147.526 93.3365 147.027 93.8347 147.027 94.4493C147.027 95.0639 147.526 95.5622 148.14 95.5622Z" fill="white"/>
<path d="M161.828 94.98L161.589 95.2283C161.492 95.3225 161.377 95.3955 161.252 95.4427C161.126 95.4899 160.993 95.5101 160.861 95.5022C160.188 95.468 159.868 95.0742 159.902 94.3209C159.907 94.1589 159.954 94.0008 160.038 93.8615C160.122 93.7221 160.24 93.6062 160.382 93.5248C160.97 93.1938 161.466 93.3193 161.871 93.9014C161.912 93.9615 161.965 94.0118 162.027 94.0486C162.09 94.0855 162.16 94.108 162.232 94.1146C162.304 94.1211 162.376 94.1116 162.444 94.0865C162.512 94.0615 162.574 94.0217 162.625 93.9699L163.01 93.5932C163.215 93.3878 163.461 93.305 163.746 93.345C164.317 93.4306 164.688 93.793 164.859 94.4322C164.92 94.7054 164.877 95.001 164.74 95.2579C164.603 95.5149 164.381 95.7137 164.121 95.8135C163.861 95.9133 163.583 95.9065 163.342 95.7945C163.102 95.6824 162.919 95.4737 162.83 95.2112C162.733 94.8916 162.562 94.7404 162.316 94.7575C162.122 94.7746 161.96 94.8488 161.828 94.98Z" fill="white"/>
<path d="M16.1289 94.8687L12.3451 94.8431C12.2999 94.8436 12.2557 94.8299 12.2188 94.8037C12.1818 94.7776 12.1542 94.7404 12.1397 94.6975L12.0113 94.2781C12.0005 94.2463 11.9974 94.2125 12.0021 94.1794C12.0069 94.1462 12.0193 94.1146 12.0384 94.0871C12.0576 94.0597 12.0829 94.0371 12.1124 94.0212C12.1419 94.0052 12.1747 93.9965 12.2082 93.9956H22.4208C22.4586 93.9961 22.4955 94.0066 22.5279 94.026C22.5602 94.0454 22.5869 94.073 22.6051 94.106C22.6234 94.1391 22.6326 94.1763 22.6318 94.2141C22.631 94.2518 22.6202 94.2886 22.6006 94.3209L22.3524 94.7403C22.3335 94.7713 22.3072 94.7969 22.2757 94.8149C22.2443 94.8329 22.2088 94.8425 22.1726 94.8431L18.4659 94.8687C18.4091 94.8687 18.3547 94.8913 18.3146 94.9314C18.2744 94.9716 18.2519 95.026 18.2519 95.0828V107.521C18.252 107.551 18.2459 107.58 18.2341 107.607C18.2223 107.634 18.205 107.659 18.1833 107.679C18.1616 107.699 18.1359 107.714 18.1079 107.724C18.0799 107.734 18.0503 107.738 18.0208 107.735L16.497 107.624C16.4433 107.62 16.3931 107.595 16.3566 107.555C16.3201 107.516 16.2999 107.464 16.3001 107.41L16.3429 95.0828C16.3429 95.026 16.3203 94.9716 16.2802 94.9314C16.2401 94.8913 16.1856 94.8687 16.1289 94.8687Z" fill="white"/>
<path d="M88.0884 106.999C74.8453 111.664 75.2905 90.7597 88.0456 94.2524C88.3481 94.338 88.4736 94.5377 88.4223 94.8516C88.3367 95.3995 87.9942 95.5964 87.395 95.4423C84.5957 94.7147 81.5653 94.1668 80.9404 97.4027C80.4781 99.7825 80.2983 104.867 82.661 106.425C84.4844 107.624 86.4362 106.126 88.0113 106.237C89.2555 106.323 89.2811 106.577 88.0884 106.999Z" fill="white"/>
<path d="M142.379 99.8338V105.963C142.378 106.138 142.44 106.307 142.552 106.441C142.665 106.576 142.822 106.667 142.995 106.699L144.399 106.956C144.473 106.972 144.539 107.013 144.587 107.071C144.635 107.13 144.661 107.203 144.662 107.278C144.663 107.354 144.639 107.427 144.593 107.487C144.546 107.547 144.481 107.589 144.408 107.607C143.209 107.846 142.048 107.732 140.924 107.264C140.786 107.206 140.669 107.108 140.587 106.983C140.505 106.858 140.461 106.712 140.461 106.562L140.453 99.7225C140.453 99.4829 140.353 99.2888 140.153 99.1404L139.922 98.9692C139.637 98.7638 139.628 98.5469 139.896 98.3186L141.771 96.7093C141.821 96.6656 141.882 96.6369 141.947 96.6265C142.013 96.6161 142.08 96.6243 142.14 96.6502C142.201 96.6762 142.254 96.7188 142.291 96.7732C142.329 96.8275 142.35 96.8914 142.353 96.9575L142.379 97.6766C142.384 97.7948 142.43 97.908 142.509 97.9969C142.589 98.0858 142.697 98.145 142.816 98.1645L144.947 98.4727C145.018 98.4739 145.085 98.5029 145.134 98.5535C145.183 98.604 145.209 98.672 145.208 98.7424C145.207 98.8128 145.178 98.8798 145.128 98.9288C145.077 98.9777 145.009 99.0046 144.939 99.0035L142.97 99.1832C142.576 99.2232 142.379 99.44 142.379 99.8338Z" fill="white"/>
<path d="M38.0352 103.087C37.8354 104.936 38.5517 106.194 40.1839 106.862C40.4407 106.965 40.6947 106.956 40.9458 106.836C41.7048 106.471 42.4895 106.249 43.2999 106.169C43.9448 106.1 43.9962 106.246 43.454 106.605C40.201 108.762 35.7752 108.018 35.8865 103.438C35.9978 98.4299 40.278 96.0501 43.7365 100.33C43.8691 100.494 43.9548 100.691 43.9844 100.899C44.014 101.108 43.9865 101.32 43.9048 101.515C43.8231 101.709 43.6903 101.877 43.5204 102.002C43.3506 102.126 43.1501 102.203 42.9404 102.222L38.4375 102.685C38.1978 102.707 38.0637 102.841 38.0352 103.087ZM38.6687 101.751L40.9543 101.649C41.0139 101.646 41.0725 101.633 41.1267 101.608C41.1809 101.583 41.2297 101.548 41.2702 101.504C41.3108 101.46 41.3423 101.409 41.363 101.353C41.3837 101.297 41.3932 101.237 41.3909 101.178V101.084C41.3793 100.818 41.3284 100.556 41.2411 100.314C41.1538 100.072 41.0319 99.8539 40.8824 99.6725C40.7328 99.4912 40.5586 99.35 40.3697 99.2573C40.1808 99.1645 39.9809 99.1219 39.7815 99.1319L39.6103 99.1405C39.2103 99.1596 38.8362 99.3892 38.5699 99.779C38.3036 100.169 38.1668 100.687 38.1893 101.221V101.315C38.1915 101.375 38.2057 101.434 38.2311 101.489C38.2565 101.544 38.2926 101.593 38.3372 101.634C38.3819 101.675 38.4342 101.706 38.4911 101.726C38.548 101.746 38.6084 101.755 38.6687 101.751Z" fill="white"/>
<path d="M48.8556 100.502V107.204C48.8556 107.598 48.6616 107.769 48.2735 107.718L47.1435 107.59C46.8354 107.55 46.6813 107.376 46.6813 107.067V98.7638C46.6813 98.467 46.8268 98.2987 47.1179 98.2587C47.8484 98.1617 48.4676 98.3786 48.9755 98.9093C49.1695 99.1148 49.3864 99.1405 49.6261 98.9864C51.1955 97.942 52.7393 98.0048 54.2573 99.1747C54.5027 99.363 54.7652 99.3887 55.0449 99.2517C62.0987 95.7591 60.6606 103.412 60.6178 107.119C60.6155 107.267 60.555 107.409 60.4493 107.513C60.3436 107.617 60.2011 107.675 60.0528 107.675H58.8286C58.4577 107.681 58.2722 107.498 58.2722 107.127V100.365C58.2731 100.163 58.2247 99.9637 58.1313 99.7847C58.0379 99.6058 57.9022 99.4523 57.7361 99.3376C57.57 99.2229 57.3784 99.1505 57.1779 99.1265C56.9775 99.1026 56.7742 99.128 56.5858 99.2004C53.7437 100.288 54.8651 104.636 54.8566 107.102C54.8566 107.541 54.6397 107.741 54.206 107.701L52.7935 107.59C52.3883 107.555 52.1943 107.336 52.2114 106.931L52.5195 100.176C52.5299 99.9991 52.479 99.8232 52.3749 99.6772C52.2708 99.5311 52.1196 99.4235 51.946 99.3716C50.9929 99.0862 50.0798 99.2432 49.2066 99.8424C48.9726 100.002 48.8556 100.222 48.8556 100.502Z" fill="white"/>
<path d="M70.8818 106.622C63.0832 111.75 60.9431 99.9366 65.9852 98.4899C68.6047 97.7365 70.3453 98.5213 71.2071 100.844C71.2612 100.989 71.2813 101.144 71.266 101.298C71.2506 101.452 71.2002 101.6 71.1186 101.732C71.0369 101.864 70.9261 101.976 70.7946 102.06C70.6631 102.143 70.5144 102.196 70.3596 102.214L66.0194 102.685C65.7341 102.719 65.5771 102.881 65.5486 103.172C65.4173 104.696 65.9567 105.883 67.1665 106.734C67.2924 106.819 67.4356 106.877 67.5864 106.902C67.7371 106.927 67.8918 106.919 68.0397 106.879L70.6678 106.143C70.7291 106.126 70.7945 106.131 70.852 106.158C70.9096 106.185 70.9555 106.232 70.9815 106.29C71.0074 106.348 71.0116 106.414 70.9933 106.475C70.975 106.536 70.9354 106.588 70.8818 106.622ZM66.1307 101.709H68.4078C68.4809 101.707 68.553 101.692 68.6201 101.663C68.6872 101.634 68.7479 101.592 68.7988 101.54C68.8497 101.487 68.8897 101.425 68.9166 101.357C68.9435 101.289 68.9568 101.217 68.9557 101.144V101.032C68.9533 100.528 68.7815 100.046 68.478 99.6913C68.1746 99.3365 67.7645 99.1384 67.3377 99.1405H67.1665C66.9551 99.1415 66.746 99.1917 66.5512 99.2882C66.3563 99.3847 66.1795 99.5256 66.0308 99.7029C65.8822 99.8802 65.7646 100.09 65.6848 100.321C65.605 100.552 65.5645 100.8 65.5657 101.049V101.161C65.5668 101.234 65.5823 101.306 65.6113 101.373C65.6403 101.44 65.6823 101.501 65.7347 101.552C65.7872 101.603 65.8492 101.643 65.9171 101.67C65.9851 101.696 66.0576 101.71 66.1307 101.709Z" fill="white"/>
<path d="M100.107 102.984C100.107 104.246 99.6059 105.457 98.7132 106.35C97.8206 107.242 96.61 107.744 95.3477 107.744C94.0853 107.744 92.8747 107.242 91.9821 106.35C91.0895 105.457 90.588 104.246 90.588 102.984C90.588 101.722 91.0895 100.511 91.9821 99.6186C92.8747 98.7259 94.0853 98.2245 95.3477 98.2245C96.61 98.2245 97.8206 98.7259 98.7132 99.6186C99.6059 100.511 100.107 101.722 100.107 102.984ZM95.4096 106.939C95.7311 106.937 96.0487 106.832 96.3444 106.631C96.64 106.429 96.9079 106.136 97.1326 105.766C97.3574 105.396 97.5347 104.958 97.6544 104.476C97.774 103.995 97.8338 103.479 97.8301 102.958C97.8228 101.907 97.5578 100.901 97.0935 100.161C96.6292 99.4209 96.0036 99.0076 95.3543 99.0121C95.0327 99.0144 94.7151 99.1191 94.4195 99.3204C94.1238 99.5216 93.856 99.8155 93.6312 100.185C93.4064 100.555 93.2292 100.993 93.1095 101.475C92.9898 101.956 92.9301 102.472 92.9337 102.993C92.9411 104.044 93.206 105.05 93.6703 105.79C94.1346 106.53 94.7603 106.943 95.4096 106.939Z" fill="white"/>
<path d="M104.927 100.305V107.11C104.927 107.475 104.747 107.661 104.388 107.667L103.335 107.701C102.969 107.707 102.787 107.53 102.787 107.17V98.8665C102.787 98.5355 102.949 98.3386 103.275 98.2758C103.954 98.1503 104.476 98.3814 104.841 98.9692C104.876 99.0258 104.922 99.0749 104.976 99.1137C105.03 99.1525 105.091 99.1803 105.156 99.1954C105.221 99.2105 105.289 99.2127 105.355 99.2018C105.422 99.1909 105.486 99.1671 105.543 99.1319C112.34 94.9372 111.33 104.037 111.356 107.119C111.356 107.564 111.136 107.761 110.697 107.709L109.404 107.547C109.096 107.513 108.945 107.341 108.95 107.033L108.976 99.8681C108.977 99.7387 108.948 99.6108 108.891 99.4947C108.834 99.3786 108.75 99.2774 108.647 99.1992C108.544 99.121 108.424 99.068 108.297 99.0445C108.17 99.0209 108.039 99.0274 107.914 99.0634L105.304 99.8082C105.052 99.8823 104.927 100.048 104.927 100.305Z" fill="white"/>
<path d="M114.155 100.27C115.311 98.1474 116.92 98.156 119.18 98.3357C119.717 98.3814 119.956 98.6781 119.899 99.226C119.886 99.3593 119.837 99.4866 119.758 99.5948C119.678 99.7029 119.572 99.788 119.449 99.8412C119.326 99.8944 119.191 99.9138 119.058 99.8975C118.925 99.8811 118.799 99.8296 118.692 99.7482C118.076 99.2745 117.374 99.089 116.586 99.1918C116.334 99.2219 116.099 99.3349 115.918 99.5131C115.737 99.6912 115.62 99.9243 115.586 100.176C115.552 100.428 115.602 100.684 115.729 100.904C115.855 101.124 116.052 101.295 116.287 101.392L119.445 102.71C119.722 102.825 119.969 103 120.169 103.222C120.37 103.444 120.519 103.708 120.606 103.994C120.692 104.281 120.715 104.583 120.671 104.879C120.627 105.175 120.519 105.457 120.353 105.706C118.875 107.921 116.792 108.38 114.104 107.085C113.761 106.925 113.724 106.711 113.992 106.443L114.198 106.237C114.303 106.13 114.444 106.065 114.594 106.052C114.745 106.04 114.895 106.081 115.02 106.169C116.041 106.893 117.088 107.013 118.161 106.528C118.383 106.429 118.571 106.268 118.703 106.065C118.836 105.861 118.906 105.624 118.907 105.38C118.908 105.137 118.839 104.898 118.708 104.691C118.578 104.485 118.391 104.32 118.17 104.217L114.96 102.727C114.74 102.625 114.544 102.478 114.383 102.297C114.223 102.116 114.101 101.903 114.025 101.673C113.95 101.443 113.922 101.2 113.945 100.958C113.967 100.717 114.039 100.483 114.155 100.27Z" fill="white"/>
<path d="M128.494 107.264C126.793 108.023 125.155 107.892 123.58 106.871C123.482 106.805 123.402 106.716 123.345 106.611C123.288 106.507 123.257 106.391 123.255 106.271L123.058 98.8836C123.047 98.4898 123.238 98.2929 123.632 98.2929H124.642C124.938 98.2929 125.087 98.4385 125.087 98.7295L125.035 105.681C125.033 105.851 125.084 106.019 125.181 106.16C125.277 106.301 125.415 106.408 125.575 106.468C126.739 106.908 127.878 106.791 128.99 106.117C129.213 105.986 129.324 105.789 129.324 105.527V98.8066C129.324 98.4527 129.501 98.2758 129.855 98.2758H130.72C131.085 98.2758 131.273 98.4556 131.285 98.8151L131.499 106.853C131.51 107.173 131.37 107.401 131.079 107.538C130.463 107.835 129.869 107.772 129.299 107.35C129.047 107.162 128.779 107.133 128.494 107.264Z" fill="white"/>
<path d="M148.696 98.2945L147.806 98.2914C147.503 98.2904 147.257 98.5348 147.256 98.8374L147.227 107.107C147.226 107.409 147.47 107.655 147.773 107.657L148.663 107.66C148.966 107.661 149.212 107.416 149.213 107.114L149.242 98.8443C149.243 98.5417 148.998 98.2956 148.696 98.2945Z" fill="white"/>
<path d="M152.463 100.116C152.355 99.6826 152.355 99.2403 152.463 98.7895C152.532 98.5212 152.7 98.3586 152.968 98.3015C153.762 98.1417 154.412 98.3529 154.92 98.935C155.091 99.1347 155.288 99.1661 155.511 99.0292C157.183 97.9962 158.824 97.9848 160.433 98.9949C160.603 99.102 160.744 99.2508 160.841 99.4274C160.938 99.6041 160.989 99.8028 160.99 100.005L160.998 107.264C160.998 107.55 160.855 107.692 160.57 107.692H159.611C159.252 107.692 159.072 107.515 159.072 107.162V100.296C159.073 100.097 159.026 99.9002 158.935 99.7226C158.845 99.5449 158.714 99.3913 158.553 99.2742C158.391 99.1572 158.204 99.0802 158.007 99.0495C157.811 99.0188 157.609 99.0353 157.42 99.0977L155.245 99.7996C155.102 99.847 154.977 99.9389 154.889 100.062C154.802 100.185 154.755 100.333 154.758 100.484L154.877 107.179C154.883 107.504 154.723 107.67 154.398 107.675L153.071 107.701C152.74 107.707 152.56 107.547 152.532 107.222C152.332 105.116 152.329 103.016 152.523 100.921C152.552 100.653 152.532 100.385 152.463 100.116Z" fill="white"/>
<path d="M166.117 106.614L166.246 107.162C166.326 107.515 166.545 107.692 166.905 107.692H170.406C170.939 107.693 171.452 107.893 171.845 108.254C172.238 108.616 172.482 109.111 172.529 109.644C172.846 113.428 167.162 114.13 164.611 113.402C164.374 113.335 164.16 113.205 163.99 113.027C163.821 112.848 163.703 112.627 163.649 112.387C163.595 112.147 163.606 111.897 163.682 111.663C163.758 111.429 163.895 111.219 164.08 111.057L164.765 110.457C165.107 110.161 165.267 110.241 165.244 110.697C165.073 113.77 169.079 113.12 170.372 111.639C170.561 111.426 170.68 111.161 170.713 110.879C170.746 110.597 170.691 110.311 170.557 110.061C170.422 109.811 170.214 109.608 169.961 109.48C169.707 109.351 169.42 109.304 169.139 109.345C167.752 109.533 166.434 109.436 165.184 109.053C164.905 108.968 164.71 108.788 164.602 108.514C164.26 107.67 164.399 106.893 165.022 106.186C165.124 106.068 165.185 105.92 165.194 105.765C165.204 105.61 165.161 105.457 165.073 105.33C162.625 101.734 164.268 98.1731 168.651 98.3358C169.576 98.3643 170.711 98.3671 172.058 98.3443C172.258 98.3386 172.398 98.39 172.478 98.4984C172.626 98.7153 172.583 98.8865 172.349 99.012L171.459 99.4743C171.337 99.5361 171.239 99.6373 171.181 99.7616C171.124 99.8859 171.11 100.026 171.142 100.159C172.01 104.08 170.477 106.052 166.545 106.074C166.18 106.08 166.037 106.26 166.117 106.614ZM167.818 105.104C168.295 105.084 168.738 104.749 169.051 104.172C169.365 103.595 169.522 102.823 169.489 102.027C169.472 101.633 169.409 101.244 169.304 100.884C169.198 100.524 169.052 100.198 168.873 99.9263C168.695 99.6545 168.488 99.4417 168.263 99.3C168.039 99.1582 167.802 99.0904 167.567 99.1003C167.09 99.1202 166.647 99.4557 166.333 100.033C166.02 100.61 165.863 101.381 165.896 102.178C165.913 102.572 165.976 102.96 166.081 103.321C166.187 103.681 166.333 104.007 166.511 104.278C166.69 104.55 166.897 104.763 167.121 104.905C167.346 105.046 167.582 105.114 167.818 105.104Z" fill="white"/>
</g>
<defs>
<clipPath id="clip0_3_31">
<rect width="177" height="124" fill="white"/>
</clipPath>
</defs>
</svg>
