<svg width="141" height="56" viewBox="0 0 141 56" fill="none" xmlns="http://www.w3.org/2000/svg">
<path d="M59.5983 32.206C59.5512 32.1513 59.4917 32.1088 59.4247 32.0822C59.3576 32.0555 59.2852 32.0454 59.2134 32.0529C59.1417 32.0603 59.0728 32.085 59.0127 32.1248C58.9525 32.1646 58.9029 32.2184 58.8681 32.2815C55.1101 39.0798 46.5997 41.1319 39.8014 37.2544C31.8764 32.7285 33.0661 23.3997 33.1605 15.3803C33.1857 13.3072 32.9507 11.6853 32.4555 10.5145C29.5851 3.76654 20.0549 3.86725 17.3671 10.7096C16.02 14.1402 16.7691 21.184 16.8006 25.0049C16.8258 28.1711 11.1416 28.9705 11.1228 23.9662C11.1039 19.3333 10.594 13.4226 11.897 9.49472C14.8996 0.436639 25.9657 -2.95621 33.513 2.92305C40.2295 8.15395 38.8887 16.8973 38.8006 24.281C38.7754 26.1442 39.0083 27.6319 39.4993 28.7439C42.4074 35.3219 51.5285 35.366 54.5122 28.7565C55.3368 26.9373 55.4123 24.0733 55.3997 21.9897C55.2612 4.35194 74.8063 -4.81944 87.4209 8.10359C87.4521 8.13728 87.4912 8.16263 87.5348 8.17746C87.5784 8.19229 87.6251 8.19616 87.6709 8.18872C87.7168 8.18129 87.7604 8.16278 87.798 8.13479C87.8355 8.1068 87.866 8.07017 87.8867 8.02805C93.1553 -2.66665 109.031 -2.86179 113.311 8.84007C113.894 10.4347 114.188 12.9631 114.192 16.4252C114.199 20.3342 113.626 25.8043 115.042 28.9894C117.843 35.2967 127.071 35.2023 129.866 28.8635C131.364 25.4707 130.552 18.2003 130.577 14.3416C130.603 10.9488 136.243 10.1871 136.23 15.3047C136.217 20.0258 136.771 26.0309 135.405 30.0406C131.578 41.2515 115.332 42.6049 110.019 31.5828C107.828 27.0381 108.389 19.2452 108.508 14.2409C108.722 5.54165 97.8575 2.16139 93.4134 9.48213C90.82 13.7373 92.9413 19.5725 91.8209 24.2054C88.1511 39.3568 69.9531 44.2415 59.5983 32.206ZM86.9614 20.5167C86.9614 17.0292 85.5759 13.6846 83.1099 11.2185C80.6439 8.75251 77.2992 7.36711 73.8117 7.36711C70.3242 7.36711 66.9796 8.75251 64.5135 11.2185C62.0475 13.6846 60.6621 17.0292 60.6621 20.5167C60.6621 22.2436 61.0022 23.9535 61.663 25.5489C62.3239 27.1443 63.2925 28.5939 64.5135 29.8149C66.9796 32.281 70.3242 33.6664 73.8117 33.6664C75.5386 33.6664 77.2485 33.3263 78.8439 32.6654C80.4392 32.0046 81.8889 31.036 83.1099 29.8149C84.331 28.5939 85.2996 27.1443 85.9604 25.5489C86.6212 23.9535 86.9614 22.2436 86.9614 20.5167Z" fill="#262261"/>
<path d="M6.84234 15.9594C8.40328 15.9594 9.66867 14.694 9.66867 13.1331C9.66867 11.5721 8.40328 10.3067 6.84234 10.3067C5.28141 10.3067 4.01602 11.5721 4.01602 13.1331C4.01602 14.694 5.28141 15.9594 6.84234 15.9594Z" fill="#C49A6C"/>
<path d="M100.155 15.9468C101.719 15.9468 102.988 14.6786 102.988 13.1141C102.988 11.5497 101.719 10.2815 100.155 10.2815C98.5906 10.2815 97.3224 11.5497 97.3224 13.1141C97.3224 14.6786 98.5906 15.9468 100.155 15.9468Z" fill="#C49A6C"/>
<path d="M122.401 15.9719C123.972 15.9719 125.246 14.6981 125.246 13.1267C125.246 11.5554 123.972 10.2815 122.401 10.2815C120.829 10.2815 119.555 11.5554 119.555 13.1267C119.555 14.6981 120.829 15.9719 122.401 15.9719Z" fill="#C49A6C"/>
<path d="M6.83605 22.3107C8.39351 22.3107 9.65608 21.0482 9.65608 19.4907C9.65608 17.9333 8.39351 16.6707 6.83605 16.6707C5.27859 16.6707 4.01602 17.9333 4.01602 19.4907C4.01602 21.0482 5.27859 22.3107 6.83605 22.3107Z" fill="#C49A6C"/>
<path d="M100.161 22.3296C101.729 22.3296 103 21.0586 103 19.4907C103 17.9228 101.729 16.6518 100.161 16.6518C98.5934 16.6518 97.3224 17.9228 97.3224 19.4907C97.3224 21.0586 98.5934 22.3296 100.161 22.3296Z" fill="#C49A6C"/>
<path d="M122.394 22.317C123.962 22.317 125.233 21.046 125.233 19.4781C125.233 17.9102 123.962 16.6392 122.394 16.6392C120.826 16.6392 119.555 17.9102 119.555 19.4781C119.555 21.046 120.826 22.317 122.394 22.317Z" fill="#C49A6C"/>
<path d="M122.394 29.1405C123.962 29.1405 125.233 27.8695 125.233 26.3016C125.233 24.7337 123.962 23.4627 122.394 23.4627C120.826 23.4627 119.555 24.7337 119.555 26.3016C119.555 27.8695 120.826 29.1405 122.394 29.1405Z" fill="#C49A6C"/>
<path d="M140.158 48.8555C140.158 50.7503 139.405 52.5676 138.065 53.9074C136.725 55.2473 134.908 56 133.013 56H7.14449C5.24965 56 3.43242 55.2473 2.09257 53.9074C0.75272 52.5676 0 50.7503 0 48.8555V48.6792C0 46.7844 0.75272 44.9672 2.09257 43.6273C3.43242 42.2875 5.24965 41.5348 7.14449 41.5348H133.013C134.908 41.5348 136.725 42.2875 138.065 43.6273C139.405 44.9672 140.158 46.7844 140.158 48.6792V48.8555ZM93.854 47.0426L96.1957 53.7905C96.2291 53.8898 96.2927 53.9758 96.3776 54.0367C96.4626 54.0976 96.5647 54.1303 96.6698 54.1303C96.775 54.1303 96.8779 54.0976 96.9644 54.0367C97.0509 53.9758 97.1166 53.8898 97.1525 53.7905L99.5444 47.0174C99.6787 46.6356 99.8193 46.6335 99.9662 47.0112C100.768 49.1388 101.534 51.2748 102.264 53.4192C102.453 53.9731 102.893 54.2752 103.453 54.1053C103.688 54.0339 103.766 53.8829 103.686 53.6521L100.684 45.1479C100.616 44.9534 100.49 44.7847 100.322 44.6656C100.154 44.5465 99.9527 44.4829 99.7468 44.4836C99.5408 44.4842 99.3403 44.5493 99.1731 44.6695C99.0059 44.7897 98.8805 44.9592 98.8143 45.1542L96.907 50.6369C96.8894 50.6836 96.858 50.7239 96.8169 50.7523C96.7759 50.7807 96.7271 50.7959 96.6772 50.7959C96.6273 50.7959 96.5786 50.7807 96.5375 50.7523C96.4965 50.7239 96.465 50.6836 96.4475 50.6369L94.5779 45.2864C94.5071 45.0854 94.3758 44.9113 94.2021 44.7879C94.0284 44.6645 93.8207 44.5979 93.6076 44.5972C93.3945 44.5965 93.1864 44.6617 93.0119 44.784C92.8374 44.9063 92.705 45.0796 92.6329 45.2801L89.7058 53.5513C89.6771 53.6317 89.669 53.7179 89.6822 53.8022C89.6955 53.8865 89.7296 53.9661 89.7816 54.0338C89.8336 54.1014 89.9018 54.1549 89.9798 54.1894C90.0578 54.2239 90.1433 54.2383 90.2283 54.2312C90.5808 54.206 90.8389 54.036 90.9711 53.6835C91.8188 51.472 92.6077 49.2605 93.3379 47.0489C93.3545 46.9938 93.3883 46.9455 93.4343 46.9109C93.4803 46.8764 93.5361 46.8573 93.5937 46.8566C93.6512 46.8559 93.7075 46.8736 93.7543 46.907C93.8011 46.9405 93.836 46.988 93.854 47.0426ZM9.53018 46.4194C10.1722 46.3943 10.8059 46.388 11.4312 46.4006C11.8928 46.409 12.025 46.1047 11.8277 45.4878C11.798 45.3909 11.7379 45.3062 11.6563 45.2461C11.5747 45.186 11.4759 45.1538 11.3745 45.1542L5.74077 45.1479C5.44702 45.1479 5.29595 45.2948 5.28755 45.5885C5.28336 45.8445 5.37148 46.0502 5.55193 46.2054C5.71139 46.3439 5.98626 46.4048 6.37654 46.388C6.75841 46.3754 7.16967 46.3859 7.6103 46.4194C7.83691 46.4362 7.95021 46.5579 7.95021 46.7845C7.98798 48.673 8.10758 50.7628 7.89356 52.6323C7.82642 53.2618 8.06981 53.5639 8.62375 53.5388C8.78134 53.5339 8.93094 53.4676 9.04123 53.3538C9.15152 53.24 9.21395 53.0875 9.21545 52.9282L9.23433 46.7216C9.23433 46.5244 9.33295 46.4236 9.53018 46.4194ZM39.1216 50.2781L39.1342 52.9722C39.1342 53.2828 39.2873 53.4485 39.5937 53.4695L39.8958 53.4947C40.1182 53.5115 40.2295 53.4087 40.2295 53.1863V45.4815C40.2295 45.1626 40.0763 45.0514 39.7699 45.1479L39.4993 45.236C39.2517 45.3116 39.1279 45.4773 39.1279 45.7333V48.2953C39.1279 48.61 38.9705 48.7674 38.6558 48.7674H35.1937C35.0884 48.7679 34.9865 48.7291 34.9075 48.6582C34.8285 48.5874 34.778 48.4895 34.7657 48.3834C34.6733 47.5609 34.6607 46.7363 34.7279 45.9096C34.7489 45.6578 34.7111 45.471 34.6146 45.3493C34.4803 45.1857 34.2789 45.1185 34.0103 45.1479C33.7501 45.1773 33.62 45.3221 33.62 45.5823V53.0918C33.62 53.3562 33.7522 53.4884 34.0166 53.4884H34.2998C34.5474 53.4884 34.6796 53.3667 34.6964 53.1233L34.8978 50.3159C34.9188 50.0179 35.0783 49.8689 35.3762 49.8689H38.7124C38.8199 49.869 38.923 49.9119 38.9995 49.9884C39.0761 50.065 39.1199 50.169 39.1216 50.2781ZM63.5576 49.8689H67.303C67.4548 49.8686 67.6016 49.8155 67.7178 49.7189C67.834 49.6222 67.9122 49.4882 67.9387 49.3402C67.9723 49.143 67.9283 48.9898 67.8066 48.8807C67.7226 48.8009 67.5799 48.7632 67.3785 48.7674C66.1615 48.7758 64.9299 48.7737 63.6835 48.7611C63.4737 48.7611 63.3352 48.6604 63.2681 48.4589C62.3868 45.7585 66.0503 46.3943 67.3848 46.4132C67.5501 46.424 67.7129 46.3688 67.8374 46.2596C67.962 46.1504 68.0381 45.9962 68.0489 45.8309C68.0598 45.6656 68.0045 45.5028 67.8953 45.3783C67.7861 45.2537 67.6319 45.1777 67.4666 45.1668C65.8804 44.978 64.3759 45.1164 62.9533 45.5823C62.8211 45.6252 62.7012 45.6991 62.6037 45.7977C62.5062 45.8963 62.434 46.0167 62.3931 46.1488C61.8518 47.9155 61.7615 49.699 62.1224 51.4993C62.6386 54.036 65.402 53.5513 67.6429 53.4506C67.9828 53.438 68.073 53.2807 67.9136 52.9785L67.794 52.7582C67.6765 52.54 67.496 52.4246 67.2526 52.412C65.6664 52.3239 62.6386 52.9911 63.2429 50.127C63.2807 49.955 63.3856 49.8689 63.5576 49.8689ZM130.842 52.3868C129.262 52.3994 126.152 52.9596 126.92 50.1207C126.966 49.9529 127.075 49.8689 127.247 49.8689H130.942C131.224 49.8689 131.383 49.7305 131.421 49.4535L131.446 49.2269C131.488 48.9205 131.356 48.7674 131.049 48.7674H127.254C127.052 48.7674 126.92 48.673 126.857 48.4841C125.938 45.7144 129.602 46.4887 130.93 46.3124C131.119 46.2915 131.261 46.1991 131.358 46.0355L131.522 45.7648C131.557 45.7066 131.576 45.6401 131.578 45.5721C131.579 45.5041 131.563 45.4368 131.53 45.377C131.498 45.3172 131.45 45.267 131.393 45.2312C131.335 45.1954 131.269 45.1754 131.201 45.1731C129.13 45.0913 125.793 44.531 125.554 47.6658C125.158 52.9848 125.963 53.6898 131.207 53.4506C131.534 53.438 131.629 53.2849 131.49 52.9911L131.358 52.7142C131.253 52.4959 131.081 52.3868 130.842 52.3868Z" fill="#C49A6C"/>
</svg>
