<svg width="281" height="458" viewBox="0 0 281 458" fill="none" xmlns="http://www.w3.org/2000/svg">
<g clip-path="url(#clip0_134_28)">
<path d="M30.0852 0H184.859C165.416 33.2342 146.053 66.1933 126.77 98.8772C96.0629 150.922 19.0455 137.737 4.00713 80.1096C-3.57725 51.0894 12.8737 27.6734 30.0852 0Z" fill="#262261"/>
<path d="M200.94 0H281V127.963C254.183 173.332 227.496 218.593 200.94 263.745C153.891 343.724 38.4954 277.125 86.1531 195.647C124.358 130.294 162.62 65.0782 200.94 0Z" fill="#C49A6C"/>
<path d="M281 161.414V422.552C267.802 445.114 248.931 457.046 224.389 458.35C180.599 460.674 146.002 418.186 156.803 375.959C158.759 368.284 165.126 355.338 175.905 337.121C210.589 278.458 245.121 219.7 279.501 160.849C279.805 160.328 280.145 160.306 280.522 160.784L281 161.414Z" fill="#262261"/>
</g>
<defs>
<clipPath id="clip0_134_28">
<rect width="281" height="458" fill="white"/>
</clipPath>
</defs>
</svg>
