<svg width="177" height="124" viewBox="0 0 177 124" fill="none" xmlns="http://www.w3.org/2000/svg">
<rect width="177" height="124" fill="#1E1E1E"/>
<g id="MacBook Air - 1" clip-path="url(#clip0_0_1)">
<rect width="1280" height="4457" transform="translate(-987 -4120)" fill="white"/>
<g id="footer">
<rect id="Rectangle 15" x="-987" y="-183" width="1280" height="520" fill="#231F20"/>
<g id="image-removebg-preview 2" clip-path="url(#clip1_0_1)">
<g id="Group 5">
<path id="Vector" d="M82.3947 37.9571C82.3393 37.8926 82.2691 37.8426 82.1901 37.8111C82.1111 37.7797 82.0257 37.7678 81.9412 37.7766C81.8566 37.7853 81.7754 37.8144 81.7046 37.8614C81.6337 37.9083 81.5752 37.9717 81.5342 38.0461C77.1052 46.0584 67.075 48.4769 59.0627 43.9069C49.7225 38.5728 51.1247 27.5782 51.2359 18.1267C51.2656 15.6835 50.9887 13.7719 50.405 12.392C47.0221 4.43913 35.7901 4.55784 32.6223 12.622C31.0347 16.6652 31.9175 24.9668 31.9546 29.47C31.9843 33.2017 25.2851 34.1438 25.2629 28.2459C25.2406 22.7857 24.6397 15.8195 26.1754 11.1902C29.7141 0.51461 42.7563 -3.4841 51.6514 3.44502C59.5672 9.61001 57.987 19.9147 57.8832 28.6169C57.8535 30.8128 58.128 32.5661 58.7066 33.8768C62.1341 41.6294 72.8839 41.6813 76.4004 33.8916C77.3722 31.7476 77.4613 28.372 77.4464 25.9164C77.2832 5.12908 100.318 -5.68005 115.186 9.55066C115.223 9.59036 115.269 9.62024 115.32 9.63772C115.371 9.6552 115.426 9.65976 115.48 9.651C115.534 9.64223 115.586 9.62042 115.63 9.58743C115.674 9.55444 115.71 9.51127 115.735 9.46163C121.944 -3.14284 140.654 -3.37282 145.699 10.4187C146.386 12.2981 146.733 15.2779 146.738 19.3583C146.745 23.9653 146.07 30.4122 147.739 34.1661C151.041 41.5997 161.916 41.4884 165.21 34.0177C166.976 30.019 166.019 21.4503 166.049 16.9027C166.078 12.9039 172.726 12.0063 172.711 18.0377C172.696 23.6018 173.349 30.6793 171.739 35.405C167.228 48.6178 148.08 50.2129 141.819 37.2226C139.237 31.8663 139.898 22.6819 140.038 16.784C140.291 6.53123 127.486 2.54735 122.248 11.1754C119.192 16.1904 121.692 23.0676 120.371 28.5278C116.046 46.3848 94.5986 52.1418 82.3947 37.9571ZM114.644 24.1804C114.644 20.0702 113.011 16.1283 110.105 13.2219C107.198 10.3155 103.257 8.68266 99.1463 8.68266C95.036 8.68266 91.0941 10.3155 88.1877 13.2219C85.2813 16.1283 83.6485 20.0702 83.6485 24.1804C83.6485 26.2156 84.0494 28.2309 84.8282 30.1112C85.607 31.9915 86.7486 33.6999 88.1877 35.139C91.0941 38.0454 95.036 39.6782 99.1463 39.6782C101.181 39.6782 103.197 39.2774 105.077 38.4985C106.957 37.7197 108.666 36.5781 110.105 35.139C111.544 33.6999 112.686 31.9915 113.464 30.1112C114.243 28.2309 114.644 26.2156 114.644 24.1804Z" fill="white"/>
<path id="Vector_2" d="M20.2181 18.8093C22.0578 18.8093 23.5491 17.3179 23.5491 15.4782C23.5491 13.6386 22.0578 12.1472 20.2181 12.1472C18.3784 12.1472 16.8871 13.6386 16.8871 15.4782C16.8871 17.3179 18.3784 18.8093 20.2181 18.8093Z" fill="white"/>
<path id="Vector_3" d="M130.194 18.7943C132.038 18.7943 133.532 17.2996 133.532 15.4559C133.532 13.6121 132.038 12.1174 130.194 12.1174C128.35 12.1174 126.855 13.6121 126.855 15.4559C126.855 17.2996 128.35 18.7943 130.194 18.7943Z" fill="white"/>
<path id="Vector_4" d="M156.412 18.824C158.264 18.824 159.765 17.3227 159.765 15.4707C159.765 13.6187 158.264 12.1174 156.412 12.1174C154.56 12.1174 153.058 13.6187 153.058 15.4707C153.058 17.3227 154.56 18.824 156.412 18.824Z" fill="white"/>
<path id="Vector_5" d="M20.2107 26.2949C22.0463 26.2949 23.5343 24.8069 23.5343 22.9713C23.5343 21.1357 22.0463 19.6477 20.2107 19.6477C18.3751 19.6477 16.8871 21.1357 16.8871 22.9713C16.8871 24.8069 18.3751 26.2949 20.2107 26.2949Z" fill="white"/>
<path id="Vector_6" d="M130.201 26.317C132.049 26.317 133.547 24.819 133.547 22.9711C133.547 21.1232 132.049 19.6252 130.201 19.6252C128.353 19.6252 126.855 21.1232 126.855 22.9711C126.855 24.819 128.353 26.317 130.201 26.317Z" fill="white"/>
<path id="Vector_7" d="M156.404 26.3023C158.252 26.3023 159.75 24.8043 159.75 22.9565C159.75 21.1086 158.252 19.6106 156.404 19.6106C154.556 19.6106 153.058 21.1086 153.058 22.9565C153.058 24.8043 154.556 26.3023 156.404 26.3023Z" fill="white"/>
<path id="Vector_8" d="M156.404 34.3441C158.252 34.3441 159.75 32.8461 159.75 30.9982C159.75 29.1503 158.252 27.6523 156.404 27.6523C154.556 27.6523 153.058 29.1503 153.058 30.9982C153.058 32.8461 154.556 34.3441 156.404 34.3441Z" fill="white"/>
<path id="Vector_9" d="M177.34 57.5797C177.34 59.8129 176.453 61.9546 174.874 63.5337C173.295 65.1128 171.153 66 168.92 66H20.5742C18.341 66 16.1993 65.1128 14.6201 63.5337C13.041 61.9546 12.1539 59.8129 12.1539 57.5797V57.3719C12.1539 55.1387 13.041 52.997 14.6201 51.4179C16.1993 49.8388 18.341 48.9517 20.5742 48.9517H168.92C171.153 48.9517 173.295 49.8388 174.874 51.4179C176.453 52.997 177.34 55.1387 177.34 57.3719V57.5797ZM122.768 55.4431L125.527 63.396C125.567 63.513 125.642 63.6144 125.742 63.6861C125.842 63.7578 125.962 63.7964 126.086 63.7964C126.21 63.7964 126.331 63.7578 126.433 63.6861C126.535 63.6144 126.613 63.513 126.655 63.396L129.474 55.4134C129.632 54.9633 129.798 54.9609 129.971 55.406C130.916 57.9135 131.818 60.431 132.679 62.9583C132.902 63.6111 133.421 63.9672 134.081 63.7669C134.358 63.6828 134.45 63.5048 134.356 63.2328L130.817 53.21C130.737 52.9807 130.588 52.782 130.39 52.6416C130.192 52.5012 129.955 52.4262 129.713 52.427C129.47 52.4278 129.234 52.5045 129.036 52.6462C128.839 52.7879 128.692 52.9876 128.614 53.2174L126.366 59.6792C126.345 59.7342 126.308 59.7817 126.26 59.8152C126.211 59.8487 126.154 59.8666 126.095 59.8666C126.036 59.8666 125.979 59.8487 125.93 59.8152C125.882 59.7817 125.845 59.7342 125.824 59.6792L123.621 53.3732C123.537 53.1364 123.383 52.9311 123.178 52.7857C122.973 52.6403 122.728 52.5617 122.477 52.5609C122.226 52.5601 121.981 52.637 121.775 52.7811C121.569 52.9253 121.413 53.1295 121.328 53.3658L117.879 63.1141C117.845 63.2087 117.835 63.3104 117.851 63.4097C117.866 63.5091 117.907 63.6029 117.968 63.6826C118.029 63.7624 118.11 63.8254 118.202 63.8661C118.293 63.9067 118.394 63.9237 118.494 63.9153C118.91 63.8856 119.214 63.6853 119.37 63.2699C120.369 60.6634 121.299 58.0569 122.159 55.4505C122.179 55.3856 122.219 55.3286 122.273 55.2879C122.327 55.2471 122.393 55.2247 122.461 55.2239C122.529 55.223 122.595 55.2439 122.65 55.2833C122.705 55.3227 122.746 55.3787 122.768 55.4431ZM23.3859 54.7086C24.1426 54.6789 24.8894 54.6715 25.6264 54.6864C26.1704 54.6962 26.3262 54.3377 26.0937 53.6106C26.0587 53.4964 25.9879 53.3966 25.8917 53.3258C25.7955 53.2549 25.679 53.217 25.5596 53.2174L18.9198 53.21C18.5736 53.21 18.3955 53.3831 18.3857 53.7293C18.3807 54.031 18.4846 54.2734 18.6972 54.4564C18.8852 54.6196 19.2091 54.6913 19.6691 54.6715C20.1192 54.6567 20.6039 54.669 21.1232 54.7086C21.3903 54.7284 21.5238 54.8718 21.5238 55.1389C21.5683 57.3645 21.7093 59.8276 21.457 62.0309C21.3779 62.7728 21.6647 63.1289 22.3176 63.0992C22.5033 63.0935 22.6796 63.0154 22.8096 62.8812C22.9396 62.7471 23.0132 62.5673 23.015 62.3796L23.0372 55.0647C23.0372 54.8323 23.1534 54.7136 23.3859 54.7086ZM58.2615 59.2563L58.2763 62.4315C58.2763 62.7975 58.4568 62.9929 58.8179 63.0176L59.174 63.0473C59.4361 63.0671 59.5672 62.9459 59.5672 62.6838V53.6032C59.5672 53.2273 59.3867 53.0963 59.0256 53.21L58.7066 53.3139C58.4148 53.4029 58.2689 53.5983 58.2689 53.9V56.9194C58.2689 57.2903 58.0834 57.4758 57.7125 57.4758H53.6322C53.508 57.4765 53.388 57.4307 53.2949 57.3472C53.2018 57.2637 53.1423 57.1484 53.1277 57.0233C53.0189 56.0539 53.0041 55.082 53.0832 54.1077C53.1079 53.8109 53.0634 53.5909 52.9497 53.4474C52.7914 53.2545 52.554 53.1754 52.2375 53.21C51.9308 53.2446 51.7775 53.4153 51.7775 53.7219V62.5725C51.7775 62.8841 51.9333 63.0399 52.2449 63.0399H52.5787C52.8705 63.0399 53.0263 62.8965 53.0461 62.6096L53.2835 59.3008C53.3082 58.9497 53.4962 58.7741 53.8473 58.7741H57.7793C57.9059 58.7741 58.0274 58.8247 58.1177 58.9149C58.2079 59.0051 58.2595 59.1278 58.2615 59.2563ZM87.0611 58.7741H91.4753C91.6542 58.7737 91.8273 58.7111 91.9642 58.5972C92.1011 58.4833 92.1933 58.3254 92.2246 58.1509C92.2641 57.9185 92.2122 57.7379 92.0688 57.6093C91.9698 57.5154 91.8017 57.4709 91.5643 57.4758C90.13 57.4857 88.6784 57.4832 87.2095 57.4684C86.9622 57.4684 86.799 57.3497 86.7198 57.1123C85.6812 53.9296 89.9989 54.6789 91.5717 54.7012C91.7665 54.714 91.9584 54.6489 92.1052 54.5202C92.252 54.3915 92.3416 54.2098 92.3544 54.015C92.3672 53.8202 92.3021 53.6283 92.1734 53.4815C92.0447 53.3347 91.8629 53.2451 91.6682 53.2323C89.7986 53.0097 88.0256 53.1729 86.3489 53.7219C86.193 53.7726 86.0517 53.8597 85.9368 53.9759C85.8219 54.0921 85.7368 54.234 85.6886 54.3896C85.0506 56.4718 84.9443 58.5738 85.3696 60.6955C85.978 63.6853 89.2348 63.1141 91.8759 62.9954C92.2765 62.9805 92.3828 62.7951 92.1949 62.439L92.0539 62.1793C91.9154 61.9221 91.7028 61.7861 91.4159 61.7713C89.5464 61.6674 85.978 62.4538 86.6902 59.0783C86.7347 58.8755 86.8583 58.7741 87.0611 58.7741ZM166.36 61.7416C164.498 61.7564 160.833 62.4167 161.738 59.0708C161.793 58.873 161.921 58.7741 162.124 58.7741H166.479C166.81 58.7741 166.998 58.6109 167.043 58.2845L167.072 58.0174C167.122 57.6563 166.966 57.4758 166.605 57.4758H162.132C161.894 57.4758 161.738 57.3645 161.664 57.142C160.581 53.8777 164.899 54.7902 166.464 54.5825C166.687 54.5578 166.855 54.449 166.969 54.2561L167.161 53.9371C167.203 53.8684 167.226 53.7901 167.227 53.71C167.229 53.6298 167.21 53.5505 167.172 53.4801C167.134 53.4096 167.078 53.3503 167.009 53.3082C166.941 53.266 166.863 53.2424 166.783 53.2397C164.342 53.1433 160.41 52.483 160.128 56.1775C159.661 62.4464 160.611 63.2773 166.79 62.9954C167.176 62.9805 167.288 62.8 167.124 62.4538L166.969 62.1274C166.845 61.8702 166.642 61.7416 166.36 61.7416Z" fill="white"/>
</g>
<g id="Group 6">
<path id="Vector_10" d="M67.235 80.2132L67.7058 80.684C67.7773 80.7566 67.8291 80.8462 67.8563 80.9443C67.8834 81.0424 67.885 81.1455 67.8609 81.2438C67.8368 81.342 67.7878 81.4319 67.7186 81.5048C67.6494 81.5778 67.5625 81.6312 67.4662 81.6599C66.6329 81.911 65.9966 81.7227 65.5572 81.0949C65.4088 80.8838 65.4145 80.6783 65.5743 80.4786L67.2265 78.347C67.3088 78.242 67.4133 78.1563 67.5323 78.0963C67.6514 78.0364 67.7821 78.0036 67.9149 78.0003C68.0477 77.997 68.1792 78.0233 68.3 78.0774C68.4209 78.1314 68.5278 78.2118 68.6133 78.3128L70.3939 80.3844C70.5344 80.547 70.6184 80.7507 70.6333 80.9651C70.6482 81.1795 70.5931 81.3929 70.4764 81.5733C70.3596 81.7537 70.1875 81.8914 69.9859 81.9657C69.7842 82.04 69.5639 82.0468 69.358 81.9852C68.7588 81.8083 68.4877 81.3574 68.5448 80.6327C68.5676 80.3245 68.462 80.0677 68.2281 79.8622C68.0112 79.6739 67.7515 79.594 67.449 79.6225C67.3828 79.6298 67.3198 79.6555 67.2672 79.6965C67.2146 79.7376 67.1748 79.7923 67.1523 79.8544C67.1298 79.9164 67.1257 79.9831 67.1403 80.0466C67.155 80.1102 67.1878 80.168 67.235 80.2132Z" fill="white"/>
<path id="Vector_11" d="M170.132 80.1446L170.911 80.4699C171.373 80.6582 171.456 80.955 171.159 81.3602C170.612 82.0964 169.95 82.2505 169.173 81.8225C168.945 81.6912 168.84 81.4972 168.857 81.2404C168.868 81.0577 168.777 80.8323 168.583 80.5641C168.55 80.5216 168.506 80.4895 168.456 80.4718C168.406 80.454 168.351 80.4513 168.299 80.464C168.248 80.4768 168.201 80.5044 168.164 80.5434C168.128 80.5825 168.104 80.6313 168.095 80.6839L167.992 81.4458C167.972 81.5897 167.918 81.7267 167.833 81.8449C167.749 81.9632 167.637 82.0593 167.508 82.1249C167.378 82.1906 167.235 82.2238 167.089 82.2218C166.944 82.2198 166.801 82.1827 166.674 82.1135C166.023 81.754 165.838 81.2889 166.117 80.7182C166.243 80.4671 166.445 80.3329 166.725 80.3158L167.324 80.2645C167.684 80.2359 167.775 80.0647 167.598 79.7508C167.37 79.3342 167.376 78.9775 167.615 78.6808C167.764 78.4981 167.986 78.3954 168.283 78.3726C169.168 78.3155 169.667 78.755 169.781 79.6909C169.81 79.9135 169.927 80.0647 170.132 80.1446Z" fill="white"/>
<path id="Vector_12" d="M126.705 80.7183C127.305 80.7183 127.792 80.2316 127.792 79.6311C127.792 79.0307 127.305 78.5439 126.705 78.5439C126.104 78.5439 125.618 79.0307 125.618 79.6311C125.618 80.2316 126.104 80.7183 126.705 80.7183Z" fill="white"/>
<path id="Vector_13" d="M129.393 80.684C129.97 80.684 130.437 80.2164 130.437 79.6396C130.437 79.0628 129.97 78.5952 129.393 78.5952C128.816 78.5952 128.348 79.0628 128.348 79.6396C128.348 80.2164 128.816 80.684 129.393 80.684Z" fill="white"/>
<path id="Vector_14" d="M33.7981 79.3983L33.0106 79.386C32.5568 79.3788 32.1831 79.7409 32.176 80.1948L32.0128 90.5859C32.0056 91.0397 32.3677 91.4134 32.8216 91.4205L33.609 91.4329C34.0628 91.44 34.4365 91.0779 34.4436 90.6241L34.6069 80.2329C34.614 79.7791 34.2519 79.4055 33.7981 79.3983Z" fill="white"/>
<path id="Vector_15" d="M87.0782 90.4258C91.29 91.6328 90.862 87.0701 90.7849 84.1252C90.7792 83.7999 90.9191 83.5631 91.2044 83.4147L92.1461 82.9439C92.5741 82.7213 92.8138 82.8497 92.8651 83.3291C93.1162 85.5663 93.005 87.7692 92.5313 89.9378C92.4742 90.206 92.5769 90.3773 92.8395 90.4514C98.9431 92.292 93.7212 83.175 97.9758 82.9953C98.3296 82.9781 98.5065 83.1465 98.5065 83.5003V88.6109C98.5065 89.3375 98.217 90.0342 97.7017 90.548C97.1863 91.0617 96.4874 91.3503 95.7586 91.3503L43.2913 91.4188C43.1824 91.4188 43.0778 91.3755 43.0008 91.2984C42.9237 91.2214 42.8804 91.1169 42.8804 91.0079C42.8462 88.0517 42.8462 85.0441 42.8804 81.9851C42.8975 80.4528 43.3855 79.3999 44.9777 79.2714C45.2802 79.2429 45.4315 79.3827 45.4315 79.6909V90.1433C45.4315 90.2568 45.4766 90.3657 45.5568 90.4459C45.6371 90.5262 45.746 90.5713 45.8595 90.5713H59.445C59.8136 90.5713 60.1672 90.4255 60.4286 90.1656C60.6901 89.9058 60.8381 89.5531 60.8403 89.1845L60.8489 84.4163C60.8442 84.2407 60.8723 84.0557 60.9316 83.8718C60.9909 83.6879 61.0802 83.5087 61.1945 83.3444C61.3088 83.1801 61.4458 83.034 61.5977 82.9143C61.7496 82.7947 61.9135 82.7039 62.0798 82.6471C62.2462 82.5904 62.4119 82.5687 62.5674 82.5835C62.7229 82.5982 62.8653 82.649 62.9863 82.733C63.1073 82.817 63.2045 82.9325 63.2726 83.073C63.3406 83.2135 63.3781 83.3761 63.3828 83.5517C63.5027 85.8744 63.4171 88.0117 63.126 89.9635C63.0861 90.2374 63.2002 90.4144 63.4684 90.4943C67.6716 91.6927 66.8156 86.8132 66.8327 84.6731C66.8384 84.3878 66.9183 84.1252 67.0724 83.8856C67.3806 83.4005 67.7943 83.0666 68.3137 82.884C69.027 82.6386 69.3609 82.8897 69.3152 83.6373L68.9214 90.1347C68.91 90.323 68.9956 90.44 69.1782 90.4857C73.3044 91.5044 72.6281 86.8817 72.611 84.0996C72.6053 83.7857 72.7423 83.5574 73.0219 83.4147L74.0406 82.8925C74.5942 82.6072 74.8567 82.7755 74.8282 83.3976L74.5457 90.1433C74.5343 90.4286 74.6684 90.5713 74.948 90.5713H78.2267C78.5577 90.5713 78.7346 90.4058 78.7574 90.0748C78.8944 87.6265 77.9356 83.3206 80.4182 82.8754C80.4838 82.8628 80.5513 82.8648 80.6161 82.8814C80.6808 82.8979 80.7411 82.9285 80.7926 82.9711C80.8441 83.0136 80.8856 83.067 80.9141 83.1274C80.9426 83.1878 80.9574 83.2538 80.9575 83.3206L80.9489 89.7152C80.9489 90.0291 81.0945 90.2517 81.3855 90.383C82.4927 90.8681 83.5057 90.6826 84.4245 89.8265C84.6528 89.6097 84.7726 89.3414 84.784 89.0218C84.8696 87.1728 83.9622 83.1237 86.6845 82.9011C87.0212 82.8726 87.2152 83.0238 87.2666 83.3548C87.6261 85.649 87.4949 87.8833 86.8728 90.0577C86.8214 90.246 86.8899 90.3687 87.0782 90.4258Z" fill="white"/>
<path id="Vector_16" d="M105.261 90.5542L107.272 90.5798C107.563 90.5798 107.709 90.4372 107.709 90.1518V80.3672C107.709 80.1046 107.826 79.9106 108.06 79.7851L109.173 79.2115C109.248 79.173 109.331 79.1541 109.415 79.1567C109.5 79.1594 109.581 79.1834 109.653 79.2265C109.724 79.2696 109.783 79.3303 109.824 79.4027C109.864 79.4751 109.885 79.5567 109.883 79.6395L109.781 90.1604C109.775 90.4286 109.909 90.5627 110.183 90.5627H113.582C113.652 90.5629 113.721 90.5487 113.785 90.5211C113.849 90.4934 113.907 90.453 113.955 90.4022C114.002 90.3515 114.038 90.2916 114.061 90.2264C114.084 90.1612 114.093 90.0921 114.087 90.0234C113.813 86.2397 113.77 83.2834 113.958 81.1547C114.067 79.9449 114.737 79.3371 115.97 79.3314C116.312 79.3314 116.484 79.5026 116.484 79.845V90.7596C116.484 91.0792 116.324 91.2447 116.004 91.2561C108.716 91.4273 103.6 91.4844 100.655 91.4273C100.398 91.4216 100.259 91.2761 100.236 90.9907C100.232 90.9369 100.24 90.8829 100.258 90.8321C100.276 90.7814 100.305 90.7349 100.342 90.6955C100.378 90.6562 100.423 90.6249 100.473 90.6035C100.522 90.5821 100.576 90.5712 100.63 90.5713H102.119C102.507 90.5713 102.687 90.3801 102.658 89.9977C102.53 88.0545 101.665 82.6186 104.259 82.0621C104.562 81.9994 104.713 82.1221 104.713 82.4302V89.9977C104.713 90.0708 104.727 90.1431 104.755 90.2107C104.782 90.2782 104.822 90.3395 104.873 90.3912C104.924 90.4428 104.985 90.4838 105.051 90.5118C105.118 90.5398 105.189 90.5542 105.261 90.5542Z" fill="white"/>
<path id="Vector_17" d="M76.8475 82.0181C77.5226 82.0546 78.0933 81.6518 78.1222 81.1183C78.1511 80.5849 77.6272 80.1228 76.9521 80.0862C76.277 80.0497 75.7063 80.4525 75.6775 80.9859C75.6486 81.5194 76.1724 81.9815 76.8475 82.0181Z" fill="white"/>
<path id="Vector_18" d="M79.7248 82.165C80.3063 82.165 80.7777 81.6935 80.7777 81.112C80.7777 80.5305 80.3063 80.0591 79.7248 80.0591C79.1433 80.0591 78.6718 80.5305 78.6718 81.112C78.6718 81.6935 79.1433 82.165 79.7248 82.165Z" fill="white"/>
<path id="Vector_19" d="M19.2902 82.8137C19.8785 83.0489 20.519 82.8304 20.7209 82.3256C20.9228 81.8208 20.6097 81.2208 20.0214 80.9856C19.4332 80.7503 18.7927 80.9688 18.5908 81.4736C18.3889 81.9784 18.702 82.5784 19.2902 82.8137Z" fill="white"/>
<path id="Vector_20" d="M22.992 82.7518C23.497 82.4099 23.6507 81.755 23.3353 81.2892C23.0199 80.8233 22.3548 80.7228 21.8497 81.0647C21.3447 81.4067 21.191 82.0615 21.5064 82.5274C21.8218 82.9933 22.487 83.0937 22.992 82.7518Z" fill="white"/>
<path id="Vector_21" d="M168.951 89.9635C168.822 87.8319 167.701 83.4233 170.663 82.8412C171.068 82.7613 171.271 82.9296 171.271 83.3462V90.7425C171.271 91.1477 171.071 91.3503 170.671 91.3503L152.489 91.4102C152.311 91.4104 152.135 91.374 151.971 91.3033C151.808 91.2326 151.661 91.1292 151.539 90.9993C150.728 90.1204 149.927 90.1518 149.133 91.0935C149.05 91.1904 148.947 91.2687 148.83 91.3233C148.714 91.3778 148.586 91.4075 148.457 91.4102C141.666 91.4673 134.886 91.4387 128.117 91.3246C120.481 91.1876 122.151 80.5384 129.53 82.0878C133.048 82.8326 133.476 86.8817 133.074 89.7238C133.059 89.8291 133.067 89.9364 133.097 90.0384C133.128 90.1403 133.179 90.2346 133.249 90.3149C133.319 90.3952 133.405 90.4597 133.502 90.5039C133.599 90.5481 133.704 90.5711 133.81 90.5713H147.139C147.365 90.5716 147.59 90.5256 147.798 90.436C148.006 90.3464 148.194 90.2151 148.35 90.0502C148.507 89.8852 148.628 89.6899 148.706 89.4763C148.785 89.2628 148.82 89.0353 148.808 88.8078C148.277 78.6465 160.561 80.1446 158.507 89.8008C158.491 89.8788 158.491 89.9594 158.509 90.037C158.526 90.1146 158.56 90.1873 158.608 90.2501C158.656 90.3128 158.717 90.3641 158.787 90.4004C158.857 90.4366 158.934 90.457 159.012 90.46L162.119 90.6055C162.565 90.6226 162.759 90.4086 162.702 89.9635C162.411 87.8234 161.751 82.6015 164.328 82.9781C164.585 83.0124 164.71 83.1608 164.705 83.4233L164.602 89.9121C164.601 89.9931 164.616 90.0734 164.646 90.1487C164.676 90.2239 164.72 90.2924 164.776 90.3505C164.833 90.4085 164.9 90.4549 164.975 90.4869C165.049 90.5189 165.129 90.5359 165.21 90.537L168.369 90.5798C168.448 90.5813 168.528 90.566 168.601 90.5351C168.675 90.5041 168.741 90.4582 168.796 90.4002C168.851 90.3422 168.893 90.2734 168.919 90.1982C168.946 90.123 168.957 90.0431 168.951 89.9635ZM127.33 83.1151C123.597 84.6902 125.061 92.018 130.566 90.4258C130.817 90.3516 130.956 90.1832 130.985 89.9207C131.182 88.1572 131.002 81.5571 127.33 83.1151ZM156.572 89.9549C156.795 78.9119 148.988 83.3548 151.308 88.5168C152.206 90.5114 154.167 90.9565 156.17 90.4686C156.432 90.4001 156.567 90.2289 156.572 89.9549Z" fill="white"/>
<path id="Vector_22" d="M27.1891 90.0663C27.249 87.892 26.3587 83.3207 28.8669 82.8841C28.9302 82.8742 28.9949 82.8779 29.0566 82.8948C29.1183 82.9117 29.1755 82.9415 29.2242 82.9821C29.273 83.0228 29.3122 83.0733 29.3392 83.1303C29.3662 83.1872 29.3803 83.2492 29.3805 83.3121V90.7769C29.3805 91.1079 29.215 91.2791 28.884 91.2905C22.3724 91.5245 18.2605 91.5616 16.5484 91.4018C12.9273 91.0508 10.1109 84.7417 14.0487 83.5004C14.1229 83.4775 14.2017 83.4732 14.278 83.4881C14.3543 83.5029 14.4257 83.5364 14.4859 83.5856C14.546 83.6347 14.5931 83.698 14.6229 83.7698C14.6527 83.8416 14.6642 83.9196 14.6565 83.997C13.7662 93.0026 20.7601 90.58 26.6754 90.5714C27.0064 90.5657 27.1776 90.3974 27.1891 90.0663Z" fill="white"/>
<path id="Vector_23" d="M35.8608 94.4321C38.8399 93.3021 37.5815 86.6592 38.1465 83.663C38.2031 83.4041 38.3524 83.1747 38.5662 83.0181C38.7801 82.8615 39.0438 82.7885 39.3078 82.8126C39.5717 82.8368 39.8177 82.9566 39.9996 83.1495C40.1814 83.3423 40.2865 83.595 40.2952 83.8599C40.3037 87.618 41.6991 94.7403 36.1348 95.4936C36.0005 95.5094 35.8643 95.4757 35.752 95.399C35.6397 95.3222 35.5591 95.2077 35.5254 95.077C35.4917 94.9463 35.5072 94.8085 35.569 94.6897C35.6308 94.5709 35.7346 94.4793 35.8608 94.4321Z" fill="white"/>
<path id="Vector_24" d="M136.457 92.4408L135.601 92.4348C135.251 92.4324 134.966 92.714 134.963 93.0639L134.866 107.034C134.863 107.384 135.145 107.67 135.495 107.672L136.351 107.678C136.7 107.681 136.986 107.399 136.988 107.049L137.086 93.0787C137.088 92.7289 136.807 92.4433 136.457 92.4408Z" fill="white"/>
<path id="Vector_25" d="M25.2544 92.5916C25.5568 92.3747 25.9249 92.3633 26.3587 92.5574C26.5755 92.6487 26.6811 92.8113 26.6754 93.0453L26.5641 98.6867C26.5625 98.7852 26.588 98.8824 26.6378 98.9675C26.6875 99.0526 26.7596 99.1221 26.8458 99.1684C26.932 99.2146 27.0291 99.2357 27.126 99.2292C27.2229 99.2228 27.3159 99.189 27.3945 99.1318C29.3006 97.8078 31.0498 97.902 32.6421 99.4143C32.758 99.5224 32.8506 99.6534 32.9139 99.7992C32.9772 99.945 33.01 100.102 33.0102 100.262L33.0187 107.05C33.0187 107.478 32.8047 107.692 32.3767 107.692H31.4179C31.0584 107.692 30.8786 107.515 30.8786 107.162V100.202C30.8778 100.021 30.8343 99.8419 30.7516 99.6804C30.6689 99.519 30.5494 99.3793 30.4027 99.2726C30.256 99.1659 30.0863 99.0952 29.9072 99.0663C29.7281 99.0374 29.5448 99.0511 29.372 99.1061L27.1377 99.8338C26.9811 99.883 26.8443 99.981 26.7473 100.113C26.6503 100.246 26.5981 100.406 26.5984 100.57V107.17C26.5984 107.535 26.4157 107.712 26.0505 107.701L25.2972 107.675C24.9319 107.658 24.7436 107.467 24.7322 107.102C24.5952 102.644 24.618 98.193 24.8007 93.7473C24.8292 93.1709 24.9804 92.7856 25.2544 92.5916Z" fill="white"/>
<path id="Vector_26" d="M148.14 95.5622C148.755 95.5622 149.253 95.0639 149.253 94.4493C149.253 93.8347 148.755 93.3364 148.14 93.3364C147.526 93.3364 147.027 93.8347 147.027 94.4493C147.027 95.0639 147.526 95.5622 148.14 95.5622Z" fill="white"/>
<path id="Vector_27" d="M161.828 94.98L161.589 95.2283C161.492 95.3225 161.377 95.3955 161.252 95.4427C161.126 95.4898 160.993 95.5101 160.861 95.5022C160.188 95.468 159.868 95.0742 159.902 94.3209C159.907 94.1589 159.954 94.0008 160.038 93.8614C160.122 93.7221 160.24 93.6062 160.382 93.5247C160.97 93.1937 161.466 93.3193 161.871 93.9014C161.912 93.9614 161.965 94.0117 162.027 94.0486C162.09 94.0855 162.16 94.108 162.232 94.1145C162.304 94.1211 162.376 94.1115 162.444 94.0865C162.512 94.0615 162.574 94.0216 162.625 93.9699L163.01 93.5932C163.215 93.3878 163.461 93.305 163.746 93.345C164.317 93.4306 164.688 93.793 164.859 94.4321C164.92 94.7054 164.877 95.0009 164.74 95.2579C164.603 95.5149 164.381 95.7137 164.121 95.8135C163.861 95.9133 163.583 95.9065 163.342 95.7944C163.102 95.6824 162.919 95.4736 162.83 95.2111C162.733 94.8916 162.562 94.7403 162.316 94.7574C162.122 94.7746 161.96 94.8488 161.828 94.98Z" fill="white"/>
<path id="Vector_28" d="M16.1289 94.8688L12.3451 94.8431C12.2999 94.8437 12.2557 94.8299 12.2188 94.8037C12.1818 94.7776 12.1542 94.7404 12.1397 94.6976L12.0113 94.2781C12.0005 94.2464 11.9974 94.2126 12.0021 94.1794C12.0069 94.1462 12.0193 94.1146 12.0384 94.0872C12.0576 94.0597 12.0829 94.0371 12.1124 94.0212C12.1419 94.0053 12.1747 93.9965 12.2082 93.9956H22.4208C22.4586 93.9961 22.4955 94.0066 22.5279 94.026C22.5602 94.0454 22.5869 94.0731 22.6051 94.1061C22.6234 94.1391 22.6326 94.1764 22.6318 94.2141C22.631 94.2518 22.6202 94.2887 22.6006 94.3209L22.3524 94.7404C22.3335 94.7713 22.3072 94.797 22.2757 94.8149C22.2443 94.8329 22.2088 94.8426 22.1726 94.8431L18.4659 94.8688C18.4091 94.8688 18.3547 94.8913 18.3146 94.9315C18.2744 94.9716 18.2519 95.026 18.2519 95.0828V107.521C18.252 107.551 18.2459 107.58 18.2341 107.607C18.2223 107.634 18.205 107.659 18.1833 107.679C18.1616 107.699 18.1359 107.714 18.1079 107.724C18.0799 107.734 18.0503 107.738 18.0208 107.735L16.497 107.624C16.4433 107.62 16.3931 107.595 16.3566 107.555C16.3201 107.516 16.2999 107.464 16.3001 107.41L16.3429 95.0828C16.3429 95.026 16.3203 94.9716 16.2802 94.9315C16.2401 94.8913 16.1856 94.8688 16.1289 94.8688Z" fill="white"/>
<path id="Vector_29" d="M88.0884 106.999C74.8453 111.664 75.2905 90.7597 88.0456 94.2524C88.3481 94.338 88.4736 94.5377 88.4223 94.8516C88.3367 95.3995 87.9942 95.5964 87.395 95.4423C84.5957 94.7147 81.5653 94.1668 80.9404 97.4027C80.4781 99.7825 80.2983 104.867 82.661 106.425C84.4844 107.624 86.4362 106.126 88.0113 106.237C89.2555 106.323 89.2811 106.577 88.0884 106.999Z" fill="white"/>
<path id="Vector_30" d="M142.379 99.8338V105.963C142.378 106.138 142.44 106.307 142.552 106.441C142.665 106.576 142.822 106.667 142.995 106.699L144.399 106.956C144.473 106.972 144.539 107.013 144.587 107.071C144.635 107.13 144.661 107.203 144.662 107.278C144.663 107.354 144.639 107.427 144.593 107.487C144.546 107.547 144.481 107.589 144.408 107.607C143.209 107.846 142.048 107.732 140.924 107.264C140.786 107.206 140.669 107.108 140.587 106.983C140.505 106.858 140.461 106.712 140.461 106.562L140.453 99.7225C140.453 99.4828 140.353 99.2888 140.153 99.1404L139.922 98.9692C139.637 98.7637 139.628 98.5469 139.896 98.3186L141.771 96.7092C141.821 96.6656 141.882 96.6369 141.947 96.6265C142.013 96.616 142.08 96.6243 142.14 96.6502C142.201 96.6762 142.254 96.7188 142.291 96.7731C142.329 96.8275 142.35 96.8914 142.353 96.9575L142.379 97.6766C142.384 97.7948 142.43 97.9079 142.509 97.9968C142.589 98.0857 142.697 98.145 142.816 98.1645L144.947 98.4727C145.018 98.4738 145.085 98.5029 145.134 98.5534C145.183 98.604 145.209 98.672 145.208 98.7423C145.207 98.8127 145.178 98.8798 145.128 98.9287C145.077 98.9777 145.009 99.0046 144.939 99.0034L142.97 99.1832C142.576 99.2232 142.379 99.44 142.379 99.8338Z" fill="white"/>
<path id="Vector_31" d="M38.0352 103.087C37.8354 104.936 38.5517 106.194 40.1839 106.862C40.4407 106.965 40.6947 106.956 40.9458 106.836C41.7048 106.471 42.4895 106.248 43.2999 106.169C43.9448 106.1 43.9962 106.246 43.454 106.605C40.201 108.762 35.7752 108.018 35.8865 103.438C35.9978 98.4298 40.278 96.05 43.7365 100.33C43.8691 100.494 43.9548 100.691 43.9844 100.899C44.014 101.108 43.9865 101.32 43.9048 101.515C43.8231 101.709 43.6903 101.877 43.5204 102.002C43.3506 102.126 43.1501 102.202 42.9404 102.222L38.4375 102.684C38.1978 102.707 38.0637 102.841 38.0352 103.087ZM38.6687 101.751L40.9543 101.649C41.0139 101.646 41.0725 101.632 41.1267 101.608C41.1809 101.583 41.2297 101.547 41.2702 101.504C41.3108 101.46 41.3423 101.409 41.363 101.353C41.3837 101.297 41.3932 101.237 41.3909 101.178V101.084C41.3793 100.818 41.3284 100.556 41.2411 100.314C41.1538 100.072 41.0319 99.8538 40.8824 99.6724C40.7328 99.491 40.5586 99.3499 40.3697 99.2571C40.1808 99.1644 39.9809 99.1218 39.7815 99.1318L39.6103 99.1403C39.2103 99.1595 38.8362 99.3891 38.5699 99.7789C38.3036 100.169 38.1668 100.687 38.1893 101.221V101.315C38.1915 101.375 38.2057 101.434 38.2311 101.489C38.2565 101.544 38.2926 101.593 38.3372 101.634C38.3819 101.674 38.4342 101.706 38.4911 101.726C38.548 101.746 38.6084 101.755 38.6687 101.751Z" fill="white"/>
<path id="Vector_32" d="M48.8556 100.502V107.205C48.8556 107.598 48.6616 107.77 48.2735 107.718L47.1435 107.59C46.8354 107.55 46.6813 107.376 46.6813 107.068V98.7639C46.6813 98.4671 46.8268 98.2988 47.1179 98.2588C47.8484 98.1618 48.4676 98.3787 48.9755 98.9094C49.1695 99.1149 49.3864 99.1405 49.6261 98.9865C51.1955 97.9421 52.7393 98.0049 54.2573 99.1748C54.5027 99.3631 54.7652 99.3888 55.0449 99.2518C62.0987 95.7592 60.6606 103.412 60.6178 107.119C60.6155 107.267 60.555 107.409 60.4493 107.513C60.3436 107.617 60.2011 107.675 60.0528 107.675H58.8286C58.4577 107.681 58.2722 107.498 58.2722 107.127V100.365C58.2731 100.163 58.2247 99.9638 58.1313 99.7848C58.0379 99.6058 57.9022 99.4524 57.7361 99.3377C57.57 99.223 57.3784 99.1505 57.1779 99.1266C56.9775 99.1027 56.7742 99.1281 56.5858 99.2005C53.7437 100.288 54.8651 104.636 54.8566 107.102C54.8566 107.541 54.6397 107.741 54.206 107.701L52.7935 107.59C52.3883 107.556 52.1943 107.336 52.2114 106.931L52.5195 100.176C52.5299 99.9992 52.479 99.8233 52.3749 99.6773C52.2708 99.5312 52.1196 99.4235 51.946 99.3717C50.9929 99.0863 50.0798 99.2433 49.2066 99.8425C48.9726 100.002 48.8556 100.222 48.8556 100.502Z" fill="white"/>
<path id="Vector_33" d="M70.8818 106.622C63.0832 111.75 60.9431 99.9366 65.9852 98.4899C68.6047 97.7365 70.3453 98.5213 71.2071 100.844C71.2612 100.989 71.2813 101.144 71.266 101.298C71.2506 101.452 71.2002 101.6 71.1186 101.732C71.0369 101.864 70.9261 101.976 70.7946 102.06C70.6631 102.143 70.5144 102.196 70.3596 102.214L66.0194 102.685C65.7341 102.719 65.5771 102.881 65.5486 103.172C65.4173 104.696 65.9567 105.883 67.1665 106.734C67.2924 106.819 67.4356 106.877 67.5864 106.902C67.7371 106.927 67.8918 106.919 68.0397 106.879L70.6678 106.143C70.7291 106.126 70.7945 106.131 70.852 106.158C70.9096 106.185 70.9555 106.232 70.9815 106.29C71.0074 106.348 71.0116 106.414 70.9933 106.475C70.975 106.536 70.9354 106.588 70.8818 106.622ZM66.1307 101.709H68.4078C68.4809 101.707 68.553 101.692 68.6201 101.663C68.6872 101.634 68.7479 101.592 68.7988 101.54C68.8497 101.487 68.8897 101.425 68.9166 101.357C68.9435 101.289 68.9568 101.217 68.9557 101.144V101.032C68.9533 100.528 68.7815 100.046 68.478 99.6913C68.1746 99.3365 67.7645 99.1384 67.3377 99.1405H67.1665C66.9551 99.1415 66.746 99.1917 66.5512 99.2882C66.3563 99.3847 66.1795 99.5256 66.0308 99.7029C65.8822 99.8802 65.7646 100.09 65.6848 100.321C65.605 100.552 65.5645 100.8 65.5657 101.049V101.161C65.5668 101.234 65.5823 101.306 65.6113 101.373C65.6403 101.44 65.6823 101.501 65.7347 101.552C65.7872 101.603 65.8492 101.643 65.9171 101.67C65.9851 101.696 66.0576 101.71 66.1307 101.709Z" fill="white"/>
<path id="Vector_34" d="M100.107 102.984C100.107 104.246 99.6059 105.457 98.7132 106.35C97.8206 107.242 96.61 107.744 95.3477 107.744C94.0853 107.744 92.8747 107.242 91.9821 106.35C91.0895 105.457 90.588 104.246 90.588 102.984C90.588 101.722 91.0895 100.511 91.9821 99.6184C92.8747 98.7258 94.0853 98.2244 95.3477 98.2244C96.61 98.2244 97.8206 98.7258 98.7132 99.6184C99.6059 100.511 100.107 101.722 100.107 102.984ZM95.4096 106.939C95.7311 106.937 96.0487 106.832 96.3444 106.631C96.64 106.429 96.9079 106.136 97.1326 105.766C97.3574 105.396 97.5347 104.958 97.6544 104.476C97.774 103.995 97.8338 103.479 97.8301 102.958C97.8228 101.907 97.5578 100.901 97.0935 100.161C96.6292 99.4207 96.0036 99.0075 95.3543 99.012C95.0327 99.0143 94.7151 99.119 94.4195 99.3203C94.1238 99.5215 93.856 99.8153 93.6312 100.185C93.4064 100.555 93.2292 100.993 93.1095 101.475C92.9898 101.956 92.9301 102.472 92.9337 102.993C92.9411 104.044 93.206 105.05 93.6703 105.79C94.1346 106.53 94.7603 106.943 95.4096 106.939Z" fill="white"/>
<path id="Vector_35" d="M104.927 100.305V107.11C104.927 107.476 104.747 107.661 104.388 107.667L103.335 107.701C102.969 107.707 102.787 107.53 102.787 107.17V98.8666C102.787 98.5356 102.949 98.3387 103.275 98.2759C103.954 98.1504 104.476 98.3815 104.841 98.9693C104.876 99.0259 104.922 99.0751 104.976 99.1139C105.03 99.1527 105.091 99.1804 105.156 99.1955C105.221 99.2106 105.289 99.2128 105.355 99.2019C105.422 99.191 105.486 99.1672 105.543 99.132C112.34 94.9374 111.33 104.037 111.356 107.119C111.356 107.564 111.136 107.761 110.697 107.71L109.404 107.547C109.096 107.513 108.945 107.342 108.95 107.033L108.976 99.8682C108.977 99.7388 108.948 99.6109 108.891 99.4948C108.834 99.3787 108.75 99.2775 108.647 99.1993C108.544 99.1212 108.424 99.0682 108.297 99.0446C108.17 99.021 108.039 99.0275 107.914 99.0635L105.304 99.8083C105.052 99.8825 104.927 100.048 104.927 100.305Z" fill="white"/>
<path id="Vector_36" d="M114.155 100.27C115.311 98.1474 116.92 98.156 119.18 98.3357C119.717 98.3814 119.956 98.6781 119.899 99.226C119.886 99.3593 119.837 99.4866 119.758 99.5948C119.678 99.7029 119.572 99.788 119.449 99.8412C119.326 99.8944 119.191 99.9138 119.058 99.8975C118.925 99.8811 118.799 99.8296 118.692 99.7482C118.076 99.2745 117.374 99.089 116.586 99.1918C116.334 99.2219 116.099 99.3349 115.918 99.5131C115.737 99.6912 115.62 99.9243 115.586 100.176C115.552 100.428 115.602 100.684 115.729 100.904C115.855 101.124 116.052 101.295 116.287 101.392L119.445 102.71C119.722 102.825 119.969 103 120.169 103.222C120.37 103.444 120.519 103.708 120.606 103.994C120.692 104.281 120.715 104.583 120.671 104.879C120.627 105.175 120.519 105.457 120.353 105.706C118.875 107.921 116.792 108.38 114.104 107.085C113.761 106.925 113.724 106.711 113.992 106.443L114.198 106.237C114.303 106.13 114.444 106.065 114.594 106.052C114.745 106.04 114.895 106.081 115.02 106.169C116.041 106.893 117.088 107.013 118.161 106.528C118.383 106.429 118.571 106.268 118.703 106.065C118.836 105.861 118.906 105.624 118.907 105.38C118.908 105.137 118.839 104.898 118.708 104.691C118.578 104.485 118.391 104.32 118.17 104.217L114.96 102.727C114.74 102.625 114.544 102.478 114.383 102.297C114.223 102.116 114.101 101.903 114.025 101.673C113.95 101.443 113.922 101.2 113.945 100.958C113.967 100.717 114.039 100.483 114.155 100.27Z" fill="white"/>
<path id="Vector_37" d="M128.494 107.264C126.793 108.023 125.155 107.892 123.58 106.871C123.482 106.805 123.402 106.716 123.345 106.612C123.288 106.507 123.257 106.391 123.255 106.271L123.058 98.8837C123.047 98.4899 123.238 98.293 123.632 98.293H124.642C124.938 98.293 125.087 98.4385 125.087 98.7296L125.035 105.681C125.033 105.852 125.084 106.019 125.181 106.16C125.277 106.301 125.415 106.408 125.575 106.468C126.739 106.908 127.878 106.791 128.99 106.117C129.213 105.986 129.324 105.789 129.324 105.527V98.8066C129.324 98.4528 129.501 98.2759 129.855 98.2759H130.72C131.085 98.2759 131.273 98.4556 131.285 98.8152L131.499 106.853C131.51 107.173 131.37 107.401 131.079 107.538C130.463 107.835 129.869 107.772 129.299 107.35C129.047 107.162 128.779 107.133 128.494 107.264Z" fill="white"/>
<path id="Vector_38" d="M148.696 98.2946L147.806 98.2915C147.503 98.2904 147.257 98.5348 147.256 98.8374L147.227 107.107C147.226 107.409 147.47 107.656 147.773 107.657L148.663 107.66C148.966 107.661 149.212 107.416 149.213 107.114L149.242 98.8444C149.243 98.5418 148.998 98.2956 148.696 98.2946Z" fill="white"/>
<path id="Vector_39" d="M152.463 100.116C152.355 99.6827 152.355 99.2404 152.463 98.7895C152.532 98.5213 152.7 98.3587 152.968 98.3016C153.762 98.1418 154.412 98.353 154.92 98.9351C155.091 99.1348 155.288 99.1662 155.511 99.0292C157.183 97.9963 158.824 97.9848 160.433 98.995C160.603 99.1021 160.744 99.2509 160.841 99.4275C160.938 99.6041 160.989 99.8029 160.99 100.005L160.998 107.264C160.998 107.55 160.855 107.692 160.57 107.692H159.611C159.252 107.692 159.072 107.516 159.072 107.162V100.296C159.073 100.097 159.026 99.9003 158.935 99.7226C158.845 99.545 158.714 99.3913 158.553 99.2743C158.391 99.1573 158.204 99.0802 158.007 99.0495C157.811 99.0188 157.609 99.0353 157.42 99.0977L155.245 99.7997C155.102 99.847 154.977 99.939 154.889 100.062C154.802 100.185 154.755 100.333 154.758 100.485L154.877 107.179C154.883 107.504 154.723 107.67 154.398 107.675L153.071 107.701C152.74 107.707 152.56 107.547 152.532 107.222C152.332 105.116 152.329 103.016 152.523 100.921C152.552 100.653 152.532 100.385 152.463 100.116Z" fill="white"/>
<path id="Vector_40" d="M166.117 106.614L166.246 107.162C166.326 107.515 166.545 107.692 166.905 107.692H170.406C170.939 107.693 171.452 107.893 171.845 108.254C172.238 108.616 172.482 109.111 172.529 109.644C172.846 113.428 167.162 114.13 164.611 113.402C164.374 113.335 164.16 113.205 163.99 113.026C163.821 112.848 163.703 112.627 163.649 112.387C163.595 112.147 163.606 111.897 163.682 111.663C163.758 111.429 163.895 111.219 164.08 111.057L164.765 110.457C165.107 110.161 165.267 110.24 165.244 110.697C165.073 113.77 169.079 113.12 170.372 111.639C170.561 111.426 170.68 111.161 170.713 110.879C170.746 110.597 170.691 110.311 170.557 110.061C170.422 109.811 170.214 109.608 169.961 109.48C169.707 109.351 169.42 109.304 169.139 109.344C167.752 109.533 166.434 109.436 165.184 109.053C164.905 108.968 164.71 108.788 164.602 108.514C164.26 107.669 164.399 106.893 165.022 106.186C165.124 106.068 165.185 105.92 165.194 105.765C165.204 105.61 165.161 105.456 165.073 105.33C162.625 101.734 164.268 98.173 168.651 98.3357C169.576 98.3642 170.711 98.3671 172.058 98.3443C172.258 98.3385 172.398 98.3899 172.478 98.4983C172.626 98.7152 172.583 98.8864 172.349 99.012L171.459 99.4742C171.337 99.536 171.239 99.6373 171.181 99.7616C171.124 99.8859 171.11 100.026 171.142 100.159C172.01 104.08 170.477 106.052 166.545 106.074C166.18 106.08 166.037 106.26 166.117 106.614ZM167.818 105.104C168.295 105.084 168.738 104.749 169.051 104.172C169.365 103.595 169.522 102.823 169.489 102.027C169.472 101.633 169.409 101.244 169.304 100.884C169.198 100.523 169.052 100.198 168.873 99.9263C168.695 99.6545 168.488 99.4416 168.263 99.2999C168.039 99.1582 167.802 99.0903 167.567 99.1002C167.09 99.1202 166.647 99.4556 166.333 100.033C166.02 100.61 165.863 101.381 165.896 102.178C165.913 102.572 165.976 102.96 166.081 103.321C166.187 103.681 166.333 104.007 166.511 104.278C166.69 104.55 166.897 104.763 167.121 104.905C167.346 105.046 167.582 105.114 167.818 105.104Z" fill="white"/>
</g>
</g>
</g>
</g>
<defs>
<clipPath id="clip0_0_1">
<rect width="1280" height="4457" fill="white" transform="translate(-987 -4120)"/>
</clipPath>
<clipPath id="clip1_0_1">
<rect width="177" height="124" fill="white"/>
</clipPath>
</defs>
</svg>
