<svg width="50" height="50" viewBox="0 0 50 50" fill="none" xmlns="http://www.w3.org/2000/svg">
<g id="&#240;&#159;&#166;&#134; icon &#34;target&#34;">
<path id="Vector" d="M24.9065 0C11.2079 0 0 11.2079 0 24.9065C0 38.605 11.2079 49.8129 24.9065 49.8129C38.605 49.8129 49.8129 38.605 49.8129 24.9065C49.8129 11.2079 38.605 0 24.9065 0ZM24.9065 6.22661C35.2426 6.22661 43.5863 14.5703 43.5863 24.9065C43.5863 35.2426 35.2426 43.5863 24.9065 43.5863C14.5703 43.5863 6.22661 35.2426 6.22661 24.9065C6.22661 14.5703 14.5703 6.22661 24.9065 6.22661ZM24.9065 12.4532C18.0572 12.4532 12.4532 18.0572 12.4532 24.9065C12.4532 31.7557 18.0572 37.3597 24.9065 37.3597C31.7557 37.3597 37.3597 31.7557 37.3597 24.9065C37.3597 18.0572 31.7557 12.4532 24.9065 12.4532ZM24.9065 18.6798C28.3934 18.6798 31.1331 21.4196 31.1331 24.9065C31.1331 28.3934 28.3934 31.1331 24.9065 31.1331C21.4196 31.1331 18.6798 28.3934 18.6798 24.9065C18.6798 21.4196 21.4196 18.6798 24.9065 18.6798Z" fill="#C49A6C"/>
</g>
</svg>
