<svg width="97" height="87" viewBox="0 0 97 87" fill="none" xmlns="http://www.w3.org/2000/svg">
<g id="&#240;&#159;&#166;&#134; icon &#34;Alternate Map Marked&#34;">
<path id="Vector" d="M48.8388 0.669434C37.2016 0.669434 27.7683 10.17 27.7683 21.8904C27.7683 31.3658 41.5394 48.6357 46.8154 54.9043C47.884 56.1742 49.7954 56.1742 50.8623 54.9043C56.1383 48.6357 69.9094 31.3658 69.9094 21.8904C69.9094 10.17 60.4761 0.669434 48.8388 0.669434ZM48.8388 28.9641C44.9592 28.9641 41.8153 25.7978 41.8153 21.8904C41.8153 17.9831 44.9592 14.8168 48.8388 14.8168C52.7185 14.8168 55.8623 17.9831 55.8623 21.8904C55.8623 25.7978 52.7185 28.9641 48.8388 28.9641ZM4.04228 37.0399C3.04925 37.4399 2.19799 38.1304 1.59829 39.0223C0.998577 39.9141 0.677926 40.9665 0.677689 42.0437L0.677689 84.2027C0.677689 86.1093 2.58908 87.4128 4.34663 86.7055L27.4339 76.1219V36.8664C25.9556 34.1751 24.7466 31.5544 23.8803 29.0483L4.04228 37.0399ZM48.8388 61.2453C46.486 61.2453 44.2602 60.2045 42.7334 58.3889C39.4457 54.4815 35.949 50.0319 32.7851 45.4677V76.1202L64.8926 86.8992V45.4693C61.7286 50.0319 58.2336 54.4832 54.9443 58.3906C53.4175 60.2045 51.1917 61.2453 48.8388 61.2453ZM93.3311 27.8121L70.2438 38.3957V86.9008L93.6354 77.4777C94.6286 77.0779 95.48 76.3874 96.0797 75.4955C96.6794 74.6036 97 73.5511 97 72.4739V30.3148C97 28.4083 95.0886 27.1047 93.3311 27.8121Z" fill="#C49A6C"/>
</g>
</svg>
