<svg width="20" height="20" viewBox="0 0 20 20" fill="none" xmlns="http://www.w3.org/2000/svg">
<path d="M9.63183 0C4.31219 0 0 4.31219 0 9.63183C0 14.9515 4.31219 19.2637 9.63183 19.2637C14.9515 19.2637 19.2637 14.9515 19.2637 9.63183C19.2637 4.31219 14.9515 0 9.63183 0ZM15.8459 8.3696V8.63875C15.8459 8.86672 15.717 9.07528 15.5131 9.17704L14.9154 9.47609C14.8204 9.5236 14.7146 9.54514 14.6087 9.53852C14.5028 9.5319 14.4005 9.49737 14.3122 9.43842L13.605 8.96693C13.5287 8.91611 13.4418 8.88337 13.3509 8.87119C13.2601 8.859 13.1676 8.86771 13.0807 8.89663L12.9777 8.93081C12.601 9.05625 12.4472 9.50522 12.6674 9.83573L13.1816 10.6071C13.2931 10.7744 13.4811 10.875 13.6823 10.875H14.0011C14.3336 10.875 14.6031 11.1446 14.6031 11.477V11.9175C14.6031 12.0476 14.5608 12.1746 14.4827 12.2786L13.7549 13.2488C13.6997 13.3226 13.6621 13.4081 13.645 13.4985L13.478 14.3852C13.4539 14.513 13.389 14.6295 13.2931 14.7177C12.925 15.0547 12.599 15.435 12.3221 15.8502L11.8161 16.6095C11.7177 16.7571 11.5843 16.8782 11.4279 16.9619C11.2714 17.0457 11.0968 17.0895 10.9193 17.0895C10.5111 17.0895 10.1379 16.8588 9.95535 16.4937C9.74258 16.0682 9.63181 15.5989 9.63183 15.1231V13.9623C9.63183 13.6298 9.3623 13.3603 9.02984 13.3603H8.02472C7.46195 13.3603 6.92249 13.1366 6.5244 12.7389C6.12661 12.3409 5.9031 11.8013 5.90299 11.2386V10.6925C5.90299 10.0249 6.21758 9.39609 6.7516 8.99528L7.82276 8.19172C8.19007 7.91628 8.63676 7.76734 9.09587 7.76722H9.13043C9.45978 7.76722 9.78486 7.84373 10.0792 7.99131L10.6509 8.27716C10.7939 8.34863 10.9589 8.36028 11.1104 8.30979L12.9478 7.69731C13.1937 7.61536 13.3595 7.38544 13.3595 7.12639C13.3595 6.79394 13.09 6.5244 12.7575 6.5244H12.3656C12.206 6.5244 12.053 6.4611 11.94 6.34808L11.6712 6.07932C11.6153 6.02341 11.549 5.97906 11.4759 5.9488C11.4029 5.91855 11.3246 5.90298 11.2456 5.90299H7.74819C7.41574 5.90299 7.1462 5.63346 7.1462 5.301V5.13012C7.1462 4.85398 7.33418 4.61318 7.60216 4.54599L8.16337 4.40579C8.30862 4.36928 8.43523 4.28034 8.51835 4.15567L8.83216 3.68534C8.94362 3.51795 9.1316 3.41736 9.33278 3.41736H10.2731C10.6055 3.41736 10.875 3.14782 10.875 2.81537V1.97258C13.9518 2.47126 16.4231 4.77786 17.1637 7.76761H16.4479C16.1155 7.76761 15.8459 8.03714 15.8459 8.3696Z" fill="#C49A6C"/>
</svg>
