<svg width="23" height="23" viewBox="0 0 23 23" fill="none" xmlns="http://www.w3.org/2000/svg">
<path d="M21.252 2.0069L16.7725 0.973178C16.2858 0.861191 15.7862 1.11531 15.5881 1.57187L13.5206 6.3959C13.3397 6.818 13.4603 7.31332 13.8178 7.6019L16.428 9.73826C14.8774 13.0419 12.1682 15.7898 8.79568 17.3705L6.65932 14.7604C6.36644 14.4029 5.87542 14.2823 5.45332 14.4632L0.629295 16.5307C0.168428 16.7331 -0.0856946 17.2327 0.0262916 17.7194L1.06001 22.1989C1.16769 22.6641 1.58118 23 2.06789 23C13.0985 23 22.0531 14.0626 22.0531 3.01477C22.0531 2.53237 21.7215 2.11458 21.252 2.0069Z" fill="#C49A6C"/>
</svg>
