<svg width="60" height="95" viewBox="0 0 60 95" fill="none" xmlns="http://www.w3.org/2000/svg">
<g id="&#240;&#159;&#166;&#134; icon &#34;Alternate Mobile&#34;">
<path id="Vector" d="M50.2581 0H8.86907C3.97261 0 0 3.97261 0 8.86907V85.7344C0 90.6308 3.97261 94.6034 8.86907 94.6034H50.2581C55.1545 94.6034 59.1272 90.6308 59.1272 85.7344V8.86907C59.1272 3.97261 55.1545 0 50.2581 0ZM29.5636 88.6907C26.2931 88.6907 23.6509 86.0485 23.6509 82.778C23.6509 79.5075 26.2931 76.8653 29.5636 76.8653C32.834 76.8653 35.4763 79.5075 35.4763 82.778C35.4763 86.0485 32.834 88.6907 29.5636 88.6907ZM50.2581 68.7353C50.2581 69.9548 49.2603 70.9526 48.0408 70.9526H11.0863C9.86684 70.9526 8.86907 69.9548 8.86907 68.7353V11.0863C8.86907 9.86684 9.86684 8.86907 11.0863 8.86907H48.0408C49.2603 8.86907 50.2581 9.86684 50.2581 11.0863V68.7353Z" fill="#C49A6C"/>
</g>
</svg>
